<svg width="21" height="21" viewBox="0 0 21 21" fill="none" xmlns="http://www.w3.org/2000/svg">
<path d="M4.8 6.61257C5.8 6.61257 6.6 5.80007 6.6 4.81257C6.6 3.82507 5.7875 3.01257 4.8 3.01257C3.8125 3.01257 3 3.82507 3 4.81257C3 5.80007 3.8125 6.61257 4.8 6.61257ZM8.3125 7.97507V18.0001H11.4125V13.0501C11.4125 11.7376 11.6625 10.4751 13.275 10.4751C14.8875 10.4751 14.8875 11.9751 14.8875 13.1251V18.0001H18V12.5001C18 9.80007 17.425 7.72507 14.275 7.72507C12.7625 7.72507 11.75 8.55007 11.3375 9.33757H11.3V7.96257H8.325L8.3125 7.97507ZM3.25 7.97507H6.3625V18.0001H3.25V7.97507Z" fill="#DDEAFF"/>
</svg>
