<svg width="20" height="20" viewBox="0 0 20 20" fill="none" xmlns="http://www.w3.org/2000/svg">
<path d="M2.08325 10C2.08325 6.26837 2.08325 4.40171 3.24242 3.24254C4.40159 2.08337 6.26742 2.08337 9.99992 2.08337C13.7316 2.08337 15.5983 2.08337 16.7574 3.24254C17.9166 4.40171 17.9166 6.26754 17.9166 10C17.9166 13.7317 17.9166 15.5984 16.7574 16.7575C15.5983 17.9167 13.7324 17.9167 9.99992 17.9167C6.26825 17.9167 4.40159 17.9167 3.24242 16.7575C2.08325 15.5984 2.08325 13.7325 2.08325 10Z" stroke="#DDEAFF" stroke-width="1.25" stroke-linecap="round" stroke-linejoin="round"/>
<path d="M14.59 5.41675H14.5817M13.75 10.0001C13.75 10.9946 13.3549 11.9485 12.6516 12.6517C11.9484 13.355 10.9946 13.7501 10 13.7501C9.00544 13.7501 8.05161 13.355 7.34835 12.6517C6.64509 11.9485 6.25 10.9946 6.25 10.0001C6.25 9.00552 6.64509 8.05169 7.34835 7.34843C8.05161 6.64517 9.00544 6.25008 10 6.25008C10.9946 6.25008 11.9484 6.64517 12.6516 7.34843C13.3549 8.05169 13.75 9.00552 13.75 10.0001Z" stroke="#DDEAFF" stroke-width="1.25" stroke-linecap="round" stroke-linejoin="round"/>
</svg>
