<svg width="20" height="20" viewBox="0 0 20 20" fill="none" xmlns="http://www.w3.org/2000/svg">
<g clip-path="url(#clip0_3029_503)">
<path d="M5.8175 3.75C6.39375 3.75 6.92625 3.79375 7.415 3.925C7.9025 4.0125 8.30375 4.195 8.66 4.41375C9.01625 4.6325 9.28125 4.94625 9.46125 5.3475C9.63625 5.7475 9.73125 6.23625 9.73125 6.76875C9.73125 7.38875 9.59875 7.92125 9.28625 8.32125C9.0175 8.72125 8.57875 9.07875 8.04 9.3425C8.7975 9.5625 9.37375 9.9625 9.725 10.495C10.0763 11.0275 10.3013 11.6913 10.3013 12.4488C10.3013 13.0688 10.17 13.6013 9.945 14.0463C9.72136 14.4947 9.38439 14.8769 8.9675 15.155C8.5675 15.4238 8.07875 15.6425 7.54625 15.775C7.02469 15.9131 6.48822 15.987 5.94875 15.995L0 16.0038V3.75H5.8175ZM5.46125 8.7225C5.94875 8.7225 6.34875 8.59125 6.6575 8.36625C6.965 8.14125 7.10125 7.745 7.10125 7.2575C7.10125 6.9875 7.0575 6.725 6.97 6.54875C6.87449 6.37068 6.73724 6.21841 6.57 6.105C6.38893 6.00556 6.19502 5.93153 5.99375 5.885C5.77375 5.84125 5.54875 5.84125 5.285 5.84125H2.7125V8.72875C2.7125 8.7225 5.46125 8.7225 5.46125 8.7225ZM5.5925 13.9638C5.86125 13.9638 6.125 13.92 6.35 13.8763C6.57 13.8325 6.795 13.7438 6.97 13.6063C7.145 13.4688 7.2825 13.3375 7.415 13.1188C7.5025 12.8988 7.59 12.63 7.59 12.3175C7.59 11.6975 7.415 11.2525 7.0575 10.94C6.70125 10.6713 6.2125 10.54 5.63625 10.54H2.7125V13.9575H5.59375L5.5925 13.9638ZM14.165 13.92C14.5217 14.2758 15.0542 14.4533 15.7625 14.4525C16.25 14.4525 16.695 14.32 17.0525 14.095C17.4075 13.8283 17.6283 13.5617 17.715 13.295H19.89C19.5325 14.3588 19 15.1163 18.2925 15.605C17.585 16.0488 16.7388 16.3125 15.7175 16.3125C15.0644 16.3165 14.4165 16.1955 13.8088 15.9563C13.2609 15.7541 12.7723 15.4181 12.3875 14.9788C11.976 14.5701 11.6705 14.0672 11.4975 13.5138C11.2788 12.9375 11.185 12.3175 11.185 11.6038C11.185 10.94 11.2725 10.3138 11.4975 9.7375C11.7225 9.1625 12.03 8.6725 12.4312 8.22875C12.8312 7.82875 13.32 7.47125 13.8525 7.25125C14.4461 7.01431 15.0796 6.89338 15.7188 6.895C16.4762 6.895 17.14 7.02625 17.7163 7.33875C18.2913 7.65125 18.7375 8.00375 19.0938 8.53625C19.45 9.02375 19.7138 9.6 19.895 10.2213C19.9825 10.8413 20.0263 11.4663 19.9825 12.175H13.545C13.545 12.9 13.8075 13.5625 14.165 13.92ZM16.965 9.255C16.6525 8.9425 16.1625 8.76625 15.5863 8.76625C15.1862 8.76625 14.8787 8.85375 14.61 8.98625C14.3412 9.11875 14.165 9.29875 13.99 9.47375C13.8268 9.64545 13.7181 9.86161 13.6775 10.095C13.6325 10.3138 13.59 10.495 13.59 10.67H17.585C17.4975 10.0125 17.2738 9.5675 16.965 9.255ZM13.0562 4.595H18.0288V5.79125H13.0562V4.595Z" fill="#DDEAFF"/>
</g>
<defs>
<clipPath id="clip0_3029_503">
<rect width="20" height="20" fill="white"/>
</clipPath>
</defs>
</svg>
