<svg width="146" height="32" viewBox="0 0 146 32" fill="none" xmlns="http://www.w3.org/2000/svg">
<g clip-path="url(#clip0_3029_655)">
<path d="M52.3831 17.1436C52.3202 16.7279 52.3499 15.6272 52.3499 14.8593V12.9334C52.3499 11.7148 51.6905 10.8984 50.4882 10.8984C49.5531 10.8984 48.2702 11.5541 47.7567 12.2079C47.617 11.252 46.6043 10.863 45.853 10.863C44.8229 10.863 43.8373 11.4012 43.3063 12.1486V10.9513C42.7368 10.9998 41.3565 11.0718 40.9421 11.0833V11.4767C41.4378 11.4767 41.5208 11.4575 41.6889 11.6677C41.855 11.8782 41.9032 12.3763 41.9032 14.7192C41.9032 15.2732 41.9032 16.9879 41.7945 17.2527C41.7313 17.4019 41.6162 17.6309 41.0333 17.6309C40.0804 17.6309 39.6998 16.2891 39.3442 15.4615L36.0513 7.48376C35.944 7.54001 35.7418 7.62051 35.5901 7.65756L32.0171 16.4147C31.6877 17.2345 31.3361 17.6232 30.659 17.6232L30.6562 17.9684C30.8735 17.9765 31.714 17.9489 32.3023 17.9489C32.9522 17.9442 33.6027 17.965 33.9272 17.9684V17.6232C32.2549 17.6232 32.7048 16.7859 33.0031 16.0001L33.8244 13.831H37.0585L38.1156 16.3699C38.5368 17.3706 38.4665 17.6232 37.3581 17.6232V17.9684C37.4456 17.9684 38.556 17.9489 39.226 17.9489C39.8403 17.9442 40.6069 17.9684 41.0709 17.9684C41.7696 17.9684 41.8782 17.9489 42.6223 17.9489C43.2776 17.9442 43.7782 17.965 44.1707 17.9684V17.6313C43.717 17.6313 43.4785 17.5747 43.3685 17.2985C43.2875 17.0203 43.2875 15.8283 43.2875 14.7357V12.6259C44.1283 11.6458 44.663 11.7023 45.0696 11.7023C45.633 11.7023 45.9893 11.9799 46.1349 12.213C46.428 12.6744 46.4331 13.733 46.4331 14.8593C46.4331 15.571 46.4492 16.7438 46.3115 17.2689C46.2268 17.5582 45.8236 17.6309 45.3573 17.6309V17.9681C45.7683 17.9647 46.3088 17.9485 47.0064 17.9485C47.6583 17.9438 48.3187 17.9647 48.7113 17.9681V17.6309C48.179 17.6309 48.0355 17.5474 47.9139 17.282C47.8356 17.1136 47.8203 16.538 47.8203 14.859V12.6255C48.3946 12.0068 49.1828 11.8512 49.6847 11.835C50.1035 11.8273 50.4018 12.0119 50.5894 12.2076C50.9648 12.6094 50.9648 13.6744 50.9648 14.8428C50.9648 15.5501 50.9648 16.8354 50.8535 17.2685C50.7766 17.5578 50.3717 17.6306 49.9026 17.6306V17.9677C50.3157 17.9644 50.8518 17.9482 51.5532 17.9482C52.1924 17.9435 52.8299 17.9644 53.2252 17.9677V17.6306C52.6789 17.6309 52.462 17.5316 52.3831 17.1436ZM34.025 13.1719C34.025 13.1719 34.9068 10.8711 35.383 9.66126C35.383 9.66126 36.1002 11.5171 36.7954 13.1719H34.025Z" fill="#DDEAFF"/>
<path d="M59.8148 16.2214C59.2525 16.7734 58.4434 17.3622 57.661 17.3622C55.8305 17.3622 55.1256 15.9435 55.2459 13.9378H59.9956L59.9884 13.7748C59.9696 13.3295 59.7789 12.7461 59.7789 12.7461C59.4738 11.8627 58.6388 10.9146 57.3529 10.9146C55.6825 10.9146 53.6924 12.1486 53.6924 14.7047C53.6924 16.5063 54.9346 18.1557 56.864 18.1557C58.1817 18.1557 59.2412 17.5558 60.1015 16.6636L59.8148 16.2214ZM57.0587 11.4252C58.1499 11.4252 58.617 12.3925 58.617 13.3645H55.3166C55.4249 12.3767 56.1185 11.4252 57.0587 11.4252Z" fill="#DDEAFF"/>
<path d="M64.8787 10.9464C64.2398 10.9349 63.3139 11.4044 63.0447 12.5338C63.0447 12.5338 63.0515 10.9511 63.0447 10.9511C62.5038 10.9942 61.0645 11.067 60.6852 11.0797V11.4769C61.3238 11.4769 61.4628 11.6133 61.5421 11.8029C61.6026 11.9346 61.6456 12.2397 61.6456 14.168C61.6456 15.5546 61.6456 16.9959 61.5363 17.2448C61.4567 17.426 61.3176 17.6227 60.5991 17.6227V17.9679C60.9674 17.9679 61.7201 17.944 62.4283 17.944C63.0867 17.9406 63.7512 17.9649 64.141 17.9679V17.6227C63.5937 17.6227 63.22 17.5499 63.1089 17.2899C63.0317 17.012 63.0317 16.2404 63.0317 15.4098V13.2087C63.1919 12.7119 63.4598 11.8059 64.3922 11.8059C64.8657 11.8059 64.8295 12.622 65.3266 12.622C65.7653 12.622 66.0003 12.3007 66.0003 11.9474C66.0003 11.4974 65.534 10.9622 64.8787 10.9464Z" fill="#DDEAFF"/>
<path d="M68.3315 9.52935C67.8938 9.52935 67.5354 9.17098 67.5354 8.72571C67.5354 8.29526 67.8938 7.92578 68.3315 7.92578C68.7999 7.92578 69.1593 8.29526 69.1593 8.72571C69.1593 9.17098 68.7999 9.52935 68.3315 9.52935ZM69.0657 17.2899C68.9847 17.012 68.9847 15.7344 68.9847 14.7351C68.9847 13.7469 68.9697 12.4323 69.0015 10.951H69.0001C68.4422 10.9995 66.9512 11.0716 66.6359 11.0831V11.4765C67.2416 11.4765 67.3834 11.7143 67.4623 11.8988C67.5874 12.1858 67.5979 14.1918 67.5979 14.6257C67.5979 15.1639 67.598 16.979 67.4886 17.2444C67.4128 17.4256 67.2713 17.6223 66.5542 17.6223V17.9675C67.0674 17.9675 67.766 17.9642 68.3448 17.9642C68.8624 17.9642 69.3609 17.9675 69.9865 17.9675V17.6223C69.5802 17.6226 69.1733 17.5657 69.0657 17.2899Z" fill="#DDEAFF"/>
<path d="M76.3074 16.5401C75.6408 17.1005 74.9629 17.4057 74.3469 17.4057C72.6018 17.4057 71.9472 15.758 71.9472 14.1723C71.9472 12.4451 72.8655 11.4279 73.8669 11.4279C74.6777 11.4279 75.0982 12.3838 75.6326 12.3838C75.8963 12.3838 76.209 12.1073 76.209 11.8617C76.209 11.336 75.4132 10.9055 74.3958 10.9055C72.5225 10.9055 70.4172 12.0668 70.4172 14.6974C70.4172 16.4215 71.6506 18.1436 73.6131 18.1436C74.7296 18.1436 75.6244 17.763 76.4481 17.0156L76.3074 16.5401Z" fill="#DDEAFF"/>
<path d="M83.4007 17.6229C82.8667 17.5889 82.7448 17.4003 82.6751 17.2369C82.617 17.1009 82.5664 16.9237 82.5534 16.4421C82.5534 16.4421 82.5596 13.9803 82.5596 12.534C82.5596 11.7738 81.797 10.9113 80.607 10.9113C79.1325 10.9113 78.0959 11.5812 77.7125 12.0921C77.3521 12.5694 77.5902 12.9227 77.7921 13.019C78.1543 13.1925 78.3788 12.9547 78.5335 12.6863C78.7132 12.3683 78.8793 11.9955 79.2592 11.7176C79.5445 11.5135 79.8704 11.3963 80.2182 11.3963C80.8728 11.3963 81.1841 11.822 81.1841 12.9917C81.1841 13.273 81.1725 13.6219 81.1725 13.9318C81.1725 13.9318 80.3084 14.0766 79.4536 14.3444C78.5636 14.6226 77.32 15.0002 77.2076 16.1989C77.1324 16.9958 77.6053 18.1352 78.9842 18.1527C79.9992 18.1662 80.8763 17.4461 81.1882 16.8914C81.1943 16.9847 81.1448 17.438 81.4926 17.7674C81.7369 17.9998 82.1769 17.9648 82.3614 17.9648C82.5456 17.9648 83.4011 17.9648 83.4011 17.9648V17.6229H83.4007ZM81.1725 16.3343C80.9316 16.8324 80.2814 17.3158 79.6026 17.277C79.0259 17.2423 78.4396 16.8004 78.5287 15.9998C78.594 15.4505 78.9931 15.0197 79.6255 14.8078C80.4007 14.5458 81.1721 14.4495 81.1721 14.4495V16.3343H81.1725Z" fill="#DDEAFF"/>
<path d="M89.1911 12.1916C89.4801 12.6578 89.49 13.7147 89.49 14.8393C89.49 15.5496 89.505 16.7036 89.3663 17.227C89.2884 17.5176 88.8788 17.6224 88.4128 17.6224V17.9676C88.7756 17.9676 89.6308 17.9437 90.0794 17.9437C90.723 17.9403 91.3749 17.9646 91.7641 17.9676V17.6224C91.2393 17.6224 91.0937 17.5072 90.97 17.2418C90.8904 17.0727 90.8754 16.5187 90.8754 14.8393V12.7265C90.8754 12.3728 90.8416 12.1593 90.7398 11.9067C90.4282 11.1307 89.5853 10.8417 88.9085 10.8417C87.8771 10.8417 86.8822 11.3802 86.3475 12.127V10.9505C85.7984 10.9936 84.4431 11.0663 83.9976 11.0825V11.4759C84.715 11.4759 84.7123 11.6605 84.7967 11.8437C84.8585 11.974 84.9593 12.2054 84.9593 14.6975C84.9593 15.2566 84.9593 16.9467 84.8483 17.2095C84.7745 17.3954 84.632 17.6221 83.9146 17.6221V17.9673C84.2887 17.9673 84.9839 17.9434 85.5938 17.9434C86.2767 17.94 86.9614 17.9643 87.3461 17.9673V17.6221C86.8938 17.6221 86.533 17.5335 86.4237 17.2573C86.3454 16.9784 86.3454 15.806 86.3454 14.7184V12.6056C87.1852 11.6285 87.7223 11.683 88.1302 11.683C88.6898 11.6837 89.0445 11.9636 89.1911 12.1916Z" fill="#DDEAFF"/>
<path d="M103.423 17.1232C103.108 17.2418 102.292 17.5045 101.334 17.5152C98.5056 17.5472 97.1503 15.4984 97.1503 12.8069C97.1503 12.0087 97.3768 8.48765 100.91 8.48765C102.554 8.48765 103.24 8.98816 103.335 10.3677H103.783C103.767 9.91473 103.838 8.69681 103.864 8.25963C103.457 8.14208 102.198 7.7406 100.932 7.7406C96.7645 7.7406 95.4092 10.713 95.4092 12.9595C95.4092 15.4422 96.8455 18.1525 101.128 18.1525C102.346 18.1525 103.261 17.8366 103.597 17.7032L103.423 17.1232Z" fill="#DDEAFF"/>
<path d="M109.805 16.221C109.242 16.773 108.434 17.3618 107.652 17.3618C105.822 17.3618 105.115 15.9431 105.237 13.9374H109.985L109.98 13.7744C109.959 13.3291 109.768 12.7458 109.768 12.7458C109.464 11.8623 108.629 10.9142 107.343 10.9142C105.672 10.9142 103.684 12.1483 103.684 14.7043C103.684 16.506 104.925 18.1553 106.855 18.1553C108.172 18.1553 109.234 17.5555 110.091 16.6632L109.805 16.221ZM107.05 11.4248C108.142 11.4248 108.607 12.3921 108.607 13.3642H105.306C105.417 12.3763 106.109 11.4248 107.05 11.4248Z" fill="#DDEAFF"/>
<path d="M115.862 12.1916C116.152 12.6578 116.163 13.7147 116.163 14.8393C116.163 15.5496 116.176 16.7036 116.037 17.227C115.959 17.5176 115.552 17.6224 115.084 17.6224V17.9676C115.446 17.9676 116.304 17.9437 116.752 17.9437C117.393 17.9403 118.045 17.9646 118.435 17.9676V17.6224C117.909 17.6224 117.765 17.5072 117.64 17.2418C117.561 17.0727 117.548 16.5187 117.548 14.8393V12.7265C117.548 12.3728 117.512 12.1593 117.412 11.9067C117.097 11.1307 116.255 10.8417 115.579 10.8417C114.548 10.8417 113.554 11.3802 113.02 12.127V10.9505C112.47 10.9936 111.113 11.0663 110.669 11.0825C110.667 11.0825 110.669 11.4759 110.669 11.4759C111.386 11.4759 111.382 11.6605 111.468 11.8437C111.529 11.974 111.63 12.2054 111.63 14.6975C111.63 15.2566 111.63 16.9467 111.518 17.2095C111.445 17.3954 111.303 17.6221 110.586 17.6221V17.9673C110.958 17.9673 111.655 17.9434 112.265 17.9434C112.95 17.94 113.632 17.9643 114.017 17.9673V17.6221C113.564 17.6221 113.204 17.5335 113.093 17.2573C113.016 16.9784 113.016 15.806 113.016 14.7184V12.6056C113.856 11.6285 114.393 11.683 114.801 11.683C115.361 11.6837 115.715 11.9636 115.862 12.1916Z" fill="#DDEAFF"/>
<path d="M122.976 16.9769C122.503 17.2982 122.28 17.3824 122.03 17.3824C121.264 17.3824 121.141 16.6892 121.141 15.8283C121.141 15.8283 121.14 12.7462 121.172 11.6829H122.648V11.08H121.172L121.199 9.3905C120.819 9.49727 120.213 9.59697 119.806 9.67713C119.806 9.67713 119.796 10.2554 119.786 11.0857L118.987 11.308V11.6825H119.779C119.759 13.1365 119.74 15.0358 119.74 16.1655C119.74 17.1537 120.202 18.153 121.405 18.153C122.016 18.153 122.698 17.7398 123.111 17.4302L122.976 16.9769Z" fill="#DDEAFF"/>
<path d="M128.974 16.9044L128.968 17.9677C129.308 17.9616 129.714 17.9438 130.201 17.9438C130.671 17.9404 131.154 17.9616 131.531 17.9677V17.6241C130.985 17.6241 130.61 17.5548 130.498 17.2947C130.397 17.0354 130.374 15.1014 130.374 14.1937C130.374 13.0748 130.394 10.9502 130.394 10.9502C129.981 11.0017 128.441 11.0822 127.97 11.0789V11.476C128.689 11.476 128.813 11.6093 128.903 11.7892C129.02 12.0142 128.99 13.5591 128.99 14.194V16.4251C128.4 17.1721 127.695 17.4096 127.051 17.3648C126.208 17.3055 125.819 16.4332 125.819 15.7808C125.819 15.383 125.774 13.5972 125.776 10.9505C125.312 11.0021 123.844 11.0792 123.4 11.0792V11.4763C124.117 11.4763 124.171 11.6016 124.256 11.7815C124.409 12.0974 124.356 13.6481 124.356 14.1944V16.1183C124.356 17.3816 125.148 18.1526 126.208 18.1526C127.678 18.1526 128.528 17.6029 128.974 16.9044Z" fill="#DDEAFF"/>
<path d="M136.343 10.9464C135.703 10.9349 134.778 11.4044 134.509 12.5338C134.509 12.5338 134.515 10.9511 134.509 10.9511C133.967 10.9942 132.529 11.067 132.148 11.0797V11.4769C132.787 11.4769 132.928 11.6133 133.006 11.8029C133.068 11.9346 133.11 12.2397 133.11 14.168C133.11 15.5546 133.11 16.9959 133 17.2448C132.921 17.426 132.782 17.6227 132.063 17.6227V17.9679C132.432 17.9679 133.184 17.944 133.891 17.944C134.551 17.9406 135.215 17.9649 135.606 17.9679V17.6227C135.058 17.6227 134.684 17.5499 134.573 17.2899C134.496 17.012 134.496 16.2404 134.496 15.4098V13.2087C134.657 12.7119 134.923 11.8059 135.857 11.8059C136.332 11.8059 136.292 12.622 136.792 12.622C137.23 12.622 137.464 12.3007 137.464 11.9474C137.464 11.4974 136.999 10.9622 136.343 10.9464Z" fill="#DDEAFF"/>
<path d="M145.55 11.4763C144.691 11.4763 144.374 12.1156 143.33 14.3493C143.048 14.9468 142.394 16.5026 141.657 18.0751C140.394 20.7845 139.142 21.9872 138.456 21.9872C138.142 21.9872 137.896 21.7407 137.894 21.4483C137.884 20.5729 139 21.0283 139.894 20.0883C140.499 19.4537 140.789 18.6787 141.056 18.0788C140.821 17.5399 140.307 16.1489 139.889 15.1041C139.479 14.0839 139.136 13.2082 138.824 12.4692C138.465 11.607 138.293 11.476 137.604 11.476V11.0789C138.12 11.0789 138.729 11.0846 139.408 11.0846C140.145 11.0846 140.724 11.0789 141.221 11.0789V11.476C140.408 11.476 140.345 11.7138 140.345 12.0384C140.345 12.3001 140.659 13.2836 141.048 14.317C141.611 15.8272 141.845 16.3493 141.845 16.3493C141.845 16.3493 142.283 15.3645 142.8 14.1617C143.252 13.1011 143.489 12.517 143.489 12.0671C143.489 11.6231 143.331 11.476 142.641 11.476V11.0789C143.192 11.0789 143.614 11.0846 144.27 11.0846C144.801 11.0846 145.127 11.0789 145.551 11.0789V11.4763H145.55Z" fill="#DDEAFF"/>
<path d="M32.7116 22.1025C32.8018 22.3631 32.8018 23.3638 32.8018 25.8865C32.8018 29.4965 32.8018 30.1873 32.6761 30.5275C32.521 30.9573 32.1329 30.9835 31.7267 30.9835V31.3288C32.0963 31.3288 32.9819 31.3096 33.5309 31.3096C34.0564 31.3096 34.9584 31.3288 35.3642 31.3288V30.9835C34.928 30.9835 34.5655 30.9573 34.3659 30.4982C34.272 30.2809 34.272 29.2688 34.272 25.8539C34.272 23.1631 34.2856 22.3951 34.4114 22.0577C34.5371 21.7037 34.863 21.6717 35.3642 21.6717V21.2749C34.5655 21.2749 34.2884 21.2907 33.5309 21.2907C32.7841 21.2907 32.4913 21.2749 31.7144 21.2749V21.6717C32.1947 21.6717 32.5682 21.7171 32.7116 22.1025Z" fill="#DDEAFF"/>
<path d="M41.6107 25.5524C41.899 26.0162 41.9096 27.0731 41.9096 28.1997C41.9096 28.9084 41.9247 30.0636 41.786 30.5857C41.7063 30.8784 41.2984 30.9831 40.8324 30.9831V31.3284C41.1952 31.3284 42.0504 31.3045 42.499 31.3045C43.1427 31.3011 43.7925 31.3223 44.1837 31.3284V30.9835C43.6562 30.9835 43.5134 30.8646 43.3897 30.6022C43.3101 30.4335 43.295 29.8794 43.295 28.2001V26.0872C43.295 25.7339 43.2605 25.5187 43.1594 25.2654C42.8458 24.4901 42.0022 24.2028 41.3288 24.2028C40.2967 24.2028 39.3004 24.7406 38.7671 25.488V24.3092C38.2174 24.3553 36.8627 24.4274 36.4165 24.4432V24.8353C37.1347 24.8353 37.1299 25.0219 37.2163 25.2031C37.2789 25.3351 37.3783 25.5652 37.3783 28.0586C37.3783 28.6153 37.3783 30.3082 37.2679 30.5702C37.1945 30.7548 37.0523 30.9838 36.3335 30.9838V31.329C36.7083 31.329 37.4029 31.3051 38.0134 31.3051C38.6964 31.3018 39.3817 31.3257 39.7658 31.329V30.9835C39.3141 30.9835 38.953 30.8946 38.8433 30.618C38.7644 30.3385 38.7644 29.1674 38.7644 28.0775V25.9666C39.6048 24.9885 40.1412 25.0434 40.5505 25.0434C41.1081 25.0431 41.4641 25.3216 41.6107 25.5524Z" fill="#DDEAFF"/>
<path d="M50.2084 24.4406C49.6173 24.4406 49.0276 24.4248 48.7536 24.4248V24.8216C49.438 24.8216 49.6016 24.9849 49.6132 25.4322C49.6242 25.8788 49.2507 26.4602 48.837 27.5211C48.3583 28.7225 48.004 29.4891 48.004 29.4891C48.004 29.4891 47.8452 29.189 47.2534 27.6818C46.8062 26.541 46.4078 25.601 46.4054 25.3571C46.3986 25.0142 46.5882 24.8219 47.278 24.8219V24.4251C46.8513 24.4251 46.2831 24.441 45.5308 24.441C44.8328 24.441 44.1328 24.4251 43.7549 24.4251V24.8219C44.3193 24.8219 44.6029 24.9553 44.9978 25.8307C45.3251 26.57 45.6866 27.4453 46.1133 28.4581C46.7611 30.0169 47.2995 31.3295 47.2995 31.3295C47.455 31.3184 47.6426 31.3184 47.8014 31.3295C47.8014 31.3295 48.9255 28.7555 49.3874 27.706C50.3843 25.4612 50.796 24.8219 51.6563 24.8219V24.4251C51.3126 24.4245 50.8415 24.4406 50.2084 24.4406Z" fill="#DDEAFF"/>
<path d="M57.5337 29.6155C56.9696 30.1689 56.1613 30.7569 55.3789 30.7569C53.549 30.7569 52.8442 29.3363 52.9658 27.3329H57.7134L57.708 27.1675C57.6881 26.7223 57.4968 26.1389 57.4968 26.1389C57.1917 25.2554 56.3581 24.3093 55.0704 24.3093C53.3997 24.3093 51.4116 25.5414 51.4116 28.0995C51.4116 29.9011 52.6532 31.5505 54.5811 31.5505C55.8999 31.5505 56.9604 30.9479 57.8197 30.0564L57.5337 29.6155ZM54.7773 24.8179C55.8685 24.8179 56.3342 25.7873 56.3342 26.76H53.0352C53.1448 25.7711 53.837 24.8179 54.7773 24.8179Z" fill="#DDEAFF"/>
<path d="M62.603 26.1385C62.6139 25.3299 62.261 24.7593 61.2633 24.7593C60.485 24.7593 59.9507 25.0991 59.9428 25.6832C59.9384 26.2834 60.7345 26.6232 61.538 27.0975C62.9005 27.8981 63.5162 28.4656 63.5053 29.343C63.494 30.6202 62.098 31.5117 60.6477 31.5117C59.8205 31.5117 59.1239 31.247 58.6148 30.9257L58.6261 30.1864C58.6288 29.9897 58.6025 29.6337 58.5906 29.2184H58.963C58.9483 30.4797 59.811 30.986 60.7498 30.986C61.5732 30.986 62.1578 30.572 62.1677 29.8492C62.1756 29.0496 61.2811 28.7606 60.3248 28.2066C59.3152 27.6225 58.6237 27.0678 58.6353 26.0372C58.651 24.8378 60.1485 24.2659 61.2391 24.2659C61.5841 24.2659 61.8708 24.3059 62.0696 24.3504C62.4198 24.4265 62.8947 24.599 63.0047 24.6896C62.9791 24.928 62.9562 25.9462 62.9743 26.1389L62.603 26.1385Z" fill="#DDEAFF"/>
<path d="M68.4008 30.3296C67.9283 30.6523 67.7024 30.7341 67.4561 30.7341C66.6891 30.7341 66.5661 30.0437 66.5661 29.1808C66.5661 29.1808 66.5661 26.0986 66.5958 25.0366H68.0714V24.4337H66.5958L66.6252 22.7429C66.2429 22.8494 65.6388 22.9487 65.2319 23.0295C65.2319 23.0295 65.222 23.6075 65.2107 24.4378L64.4116 24.6604V25.0363H65.2025C65.1841 26.4883 65.165 28.3879 65.165 29.5193C65.165 30.5061 65.6269 31.5054 66.8298 31.5054C67.4417 31.5054 68.1233 31.0925 68.5354 30.782L68.4008 30.3296Z" fill="#DDEAFF"/>
<path d="M80.6113 30.501C80.5464 30.088 80.5785 28.9873 80.5785 28.2167V26.2912C80.5785 25.0753 79.9205 24.2585 78.7189 24.2585C77.7803 24.2585 76.5008 24.9146 75.9873 25.5687C75.8462 24.6128 74.8332 24.2188 74.0806 24.2188C73.0532 24.2188 72.0652 24.762 71.5349 25.504V24.3073C71.0323 24.3521 69.9339 24.4141 69.1775 24.4353V24.8341C69.732 24.8341 69.7727 24.8456 69.9175 25.0268C70.0849 25.2393 70.1338 25.7354 70.1338 28.0796C70.1338 28.6344 70.1338 30.3491 70.0238 30.6125C69.9589 30.7583 69.8458 30.9883 69.0723 30.9883V31.3289C69.4843 31.3289 70.1095 31.305 70.8537 31.305C71.5089 31.305 72.1253 31.3208 72.4017 31.3289V30.9883C72.0655 30.9883 71.7044 30.9351 71.5981 30.6589C71.5168 30.3777 71.5168 29.1891 71.5168 28.0961V25.983C72.359 25.0062 72.8923 25.0621 73.2996 25.0621C73.8623 25.0621 74.2193 25.3403 74.3676 25.5734C74.6573 26.0342 74.6624 27.0914 74.6624 28.2171C74.6624 28.9271 74.6785 30.1025 74.5401 30.6266C74.4619 30.9193 74.0567 30.9887 73.5852 30.9887V31.3292C74.001 31.3215 74.5374 31.3053 75.2381 31.3053C75.89 31.3053 76.55 31.3211 76.9412 31.3292V30.9887C76.411 30.9887 76.2665 30.9035 76.1442 30.6408C76.0663 30.4693 76.0502 29.8961 76.0502 28.2174V25.9833C76.6238 25.3653 77.4141 25.2073 77.9139 25.1958C78.3366 25.1857 78.6341 25.368 78.8186 25.569C79.1934 25.9702 79.1934 27.0311 79.1934 28.2039C79.1934 28.9106 79.1934 30.1968 79.0861 30.6266C79.0065 30.9193 78.6013 30.9887 78.1312 30.9887V31.3292C78.5443 31.3215 79.0861 31.3053 79.7835 31.3053C80.421 31.3053 81.0599 31.3258 81.4562 31.3292V30.9887C80.9096 30.988 80.6912 30.887 80.6113 30.501Z" fill="#DDEAFF"/>
<path d="M87.9646 29.6155C87.3998 30.1689 86.5915 30.7569 85.8091 30.7569C83.9799 30.7569 83.2743 29.3363 83.3956 27.3329H88.1436L88.1378 27.1675C88.1163 26.7223 87.9256 26.1389 87.9256 26.1389C87.6219 25.2554 86.7883 24.3093 85.5002 24.3093C83.8299 24.3093 81.8418 25.5414 81.8418 28.0995C81.8418 29.9011 83.0827 31.5505 85.0113 31.5505C86.3298 31.5505 87.3899 30.9479 88.2495 30.0564L87.9646 29.6155ZM85.2061 24.8179C86.298 24.8179 86.7643 25.7873 86.7643 26.76H83.464C83.5719 25.7711 84.2672 24.8179 85.2061 24.8179Z" fill="#DDEAFF"/>
<path d="M94.0605 25.5524C94.3502 26.0162 94.3594 27.0731 94.3594 28.1997C94.3594 28.9084 94.3745 30.0636 94.2358 30.5857C94.1561 30.8784 93.7482 30.9831 93.2822 30.9831V31.3284C93.645 31.3284 94.5002 31.3045 94.9488 31.3045C95.5925 31.3011 96.2423 31.3223 96.6335 31.3284V30.9835C96.106 30.9835 95.9638 30.8646 95.8395 30.6022C95.7599 30.4335 95.7455 29.8794 95.7455 28.2001V26.0872C95.7455 25.7339 95.711 25.5187 95.6092 25.2654C95.2952 24.4901 94.452 24.2028 93.7786 24.2028C92.7465 24.2028 91.7509 24.7406 91.2169 25.488V24.3092C90.6672 24.3553 89.3125 24.4274 88.866 24.4432V24.8353C89.5848 24.8353 89.579 25.0219 89.6661 25.2031C89.7287 25.3351 89.8281 25.5652 89.8281 28.0586C89.8281 28.6153 89.8281 30.3082 89.7177 30.5702C89.6439 30.7548 89.5021 30.9838 88.7847 30.9838V31.329C89.1581 31.329 89.8527 31.3051 90.4639 31.3051C91.1462 31.3018 91.8315 31.3257 92.2156 31.329V30.9835C91.7639 30.9835 91.4024 30.8946 91.2931 30.618C91.2135 30.3385 91.2135 29.1674 91.2135 28.0775V25.9666C92.0546 24.9885 92.591 25.0434 93 25.0434C93.5593 25.0431 93.9136 25.3216 94.0605 25.5524Z" fill="#DDEAFF"/>
<path d="M101.134 30.3296C100.661 30.6523 100.437 30.7341 100.191 30.7341C99.4226 30.7341 99.2982 30.0437 99.2982 29.1808C99.2982 29.1808 99.2982 26.0986 99.3286 25.0366H100.806V24.4337H99.3286L99.3597 22.7429C98.9784 22.8494 98.3737 22.9487 97.9641 23.0295C97.9641 23.0295 97.9559 23.6075 97.9436 24.4378L97.1448 24.6604V25.0363H97.9367C97.919 26.4883 97.8981 28.3879 97.8981 29.5193C97.8981 30.5061 98.3607 31.5054 99.5633 31.5054C100.177 31.5054 100.857 31.0925 101.268 30.782L101.134 30.3296Z" fill="#DDEAFF"/>
<path d="M106.205 26.1385C106.215 25.3299 105.864 24.7593 104.867 24.7593C104.088 24.7593 103.554 25.0991 103.546 25.6832C103.54 26.2834 104.339 26.6232 105.139 27.0975C106.502 27.8981 107.119 28.4656 107.11 29.343C107.095 30.6202 105.7 31.5117 104.249 31.5117C103.421 31.5117 102.725 31.247 102.216 30.9257L102.229 30.1864C102.232 29.9897 102.204 29.6337 102.191 29.2184H102.564C102.55 30.4797 103.413 30.986 104.351 30.986C105.176 30.986 105.759 30.572 105.771 29.8492C105.777 29.0496 104.885 28.7606 103.927 28.2066C102.916 27.6225 102.226 27.0678 102.238 26.0372C102.253 24.8378 103.752 24.2659 104.842 24.2659C105.187 24.2659 105.474 24.3059 105.671 24.3504C106.024 24.4265 106.499 24.599 106.608 24.6896C106.582 24.928 106.559 25.9462 106.575 26.1389L106.205 26.1385Z" fill="#DDEAFF"/>
<path d="M21.0083 24.5372L21.8846 25.0892C22.5594 24.0838 23.858 23.1064 24.8659 22.7837L24.7467 21.713C23.3281 22.1398 21.8293 23.297 21.0083 24.5372Z" fill="#DDEAFF"/>
<path d="M19.2148 23.8479L20.2237 24.1972C21.5333 22.0998 23.6973 20.5636 26.0845 20.1224L25.8829 19.0884C23.0643 19.6303 20.6566 21.3342 19.2148 23.8479Z" fill="#DDEAFF"/>
<path d="M15.6296 24.1304L16.6375 23.8919C14.4249 17.062 9.15934 11.8994 1.98666 9.86096L1.72632 10.8731C8.762 12.8098 13.6859 18.126 15.6296 24.1304Z" fill="#DDEAFF"/>
<path d="M9.83926 24.1905L10.8687 23.9038C9.16961 20.3036 5.77699 17.7816 1.81141 17.0763L1.66382 18.0938C5.22249 18.7401 8.26867 20.985 9.83926 24.1905Z" fill="#DDEAFF"/>
<path d="M1.76991 19.3182L1.61719 20.3448C4.12254 20.7049 6.30639 22.0996 7.67164 24.1929L8.63408 23.7608C7.11098 21.3435 4.62784 19.7302 1.76991 19.3182Z" fill="#DDEAFF"/>
<path d="M2.5769 21.7035L2.44775 22.7314C3.90935 23.11 5.20695 23.9783 6.13454 25.1875L7.01908 24.6823C5.92647 23.1956 4.35111 22.1383 2.5769 21.7035Z" fill="#DDEAFF"/>
<path d="M18.0259 22.1386L17.6525 21.2026C19.8791 17.8998 23.447 15.7257 27.3869 15.2262L27.1232 14.1976C23.148 14.7371 19.5326 16.8617 17.1458 20.084L16.7075 19.2188C19.1811 15.8806 22.818 13.6118 26.857 12.8618L26.6001 11.8564C22.4787 12.6391 18.7523 14.9018 16.1462 18.2305L15.5619 17.2959C18.1735 14.0803 21.7213 11.7809 25.6992 10.6849L25.3554 9.68628C21.2884 10.82 17.6539 13.1494 14.9384 16.3956C14.9384 16.3956 14.3853 15.6684 14.3825 15.6637C17.1202 12.3754 20.7677 9.8722 24.8266 8.4714L24.4586 7.48386C23.2266 7.9106 22.0308 8.43805 20.8839 9.05038C21.5074 7.76039 22.2648 6.50441 23.1494 5.44749L22.3366 4.78128C21.0882 6.27807 20.0779 8.13021 19.3311 9.95405C18.8685 10.2447 18.4182 10.5516 17.9771 10.8715C18.7048 8.29794 19.9194 5.7806 21.5504 3.75972L20.6673 3.17434C18.6993 5.65059 17.3146 8.79036 16.6303 11.9234C16.2234 12.2646 15.8267 12.6186 15.4427 12.986C15.8968 9.45253 17.3942 5.79037 18.9942 3.24238L18.0854 2.70786C16.3816 5.44008 14.6056 9.63576 14.2596 14.1989C14.0686 14.4077 13.8817 14.6203 13.6986 14.8365C13.5923 14.7119 13.4837 14.5886 13.3743 14.4657C13.5352 9.89814 14.9381 5.3158 17.4386 1.58358L16.5111 1.06488C14.1191 4.67619 12.7047 9.02512 12.3815 13.4242C12.2988 13.3427 11.5089 12.5893 11.5089 12.5893C11.8669 8.42391 13.0836 4.41752 15.0464 1.06488L14.1273 0.549561C12.2086 3.83955 10.9773 7.72165 10.5345 11.7755C10.268 11.562 9.99673 11.3549 9.7217 11.1521C10.1416 7.68864 10.9667 4.55258 12.21 1.81025L11.3196 1.22824C10.8259 2.30031 10.3954 3.42965 10.0258 4.61253C9.60042 3.77252 9.10399 2.9736 8.53856 2.22318L7.75036 2.9379C8.49243 3.93251 9.10707 5.01873 9.58231 6.17602C9.42105 6.80148 9.2755 7.44008 9.1467 8.09147C8.58229 6.42391 7.70594 4.8126 6.55013 3.48724L5.76843 4.19387C7.20713 5.88872 8.32126 8.24944 8.77908 10.2639C8.77054 10.3333 8.76063 10.402 8.75141 10.4714C8.37764 10.2235 7.99703 9.98402 7.61096 9.75667C7.00145 7.96012 5.84086 6.04534 4.70417 4.74524L3.98772 5.53001C4.82239 6.50138 5.54191 7.67147 6.13707 8.95675C5.02396 8.39999 3.86951 7.92475 2.68295 7.54213L2.42432 8.55526C9.11561 10.7476 15.0307 15.9961 17.4684 23.7546L18.3379 23.7189C19.9231 20.6212 22.8378 18.4727 26.2236 17.8052L26.0234 16.7711C22.476 17.4747 19.7059 19.565 18.0259 22.1386Z" fill="#DDEAFF"/>
<path d="M15.1656 28.0731C15.1143 27.5224 15.0819 25.7238 15.0682 25.1503C13.2817 18.7195 8.34753 13.5989 0.995483 12.1254L0.799716 13.1432C5.68571 14.0684 11.4607 17.4608 13.7894 24.545L13.1737 24.7569C11.3168 19.2463 6.35842 15.219 0.541767 14.4814L0.353516 15.508C7.18523 16.3456 11.8427 21.9411 12.3193 26.0253C12.3534 26.3187 12.3698 27.6908 12.3124 28.2055C12.1942 29.2708 11.8122 29.4295 11.5755 29.5655C10.5949 30.131 7.86068 30.4217 7.86068 30.4217V31.3311C9.2331 31.3257 11.3763 31.1112 13.978 31.1112C16.5722 31.1112 18.6604 31.3284 19.8626 31.3284V30.4217C19.8626 30.4217 17.6836 30.0418 16.1475 29.5669C15.2981 29.2159 15.2455 28.9333 15.1656 28.0731Z" fill="#DDEAFF"/>
<path d="M109.616 24.2333C110.723 24.2333 111.626 25.1188 111.626 26.2107C111.626 27.3027 110.723 28.1935 109.616 28.1935C108.507 28.1935 107.604 27.3027 107.604 26.2107C107.604 25.1188 108.507 24.2333 109.616 24.2333ZM109.616 27.8655C110.523 27.8655 111.26 27.112 111.26 26.2107C111.26 25.3094 110.523 24.5613 109.616 24.5613C108.707 24.5613 107.969 25.3094 107.969 26.2107C107.969 27.112 108.707 27.8655 109.616 27.8655ZM108.64 25.1454H109.687C110.163 25.1454 110.417 25.3148 110.417 25.7028C110.417 25.9706 110.235 26.1774 109.975 26.2602C110.451 27.0575 110.512 27.1282 110.662 27.1282V27.2589H110.224C110.136 27.2589 110.042 27.2215 109.548 26.3522H109.327V26.8991C109.327 27.074 109.393 27.1285 109.581 27.1285V27.2592H108.64V27.1285C108.828 27.1285 108.894 27.074 108.894 26.8991V25.5058C108.894 25.3309 108.828 25.2764 108.64 25.2764V25.1454ZM109.36 26.1932H109.571C109.798 26.1932 109.986 26.0679 109.986 25.7078C109.986 25.3906 109.814 25.304 109.566 25.304H109.36V26.1932Z" fill="#DDEAFF"/>
</g>
<defs>
<clipPath id="clip0_3029_655">
<rect width="146" height="31.8851" fill="white" transform="translate(0 0.0574951)"/>
</clipPath>
</defs>
</svg>
