<svg width="98" height="26" viewBox="0 0 98 26" fill="none" xmlns="http://www.w3.org/2000/svg">
<g clip-path="url(#clip0_3029_557)">
<path d="M12.0514 20.6543L11.9808 20.7214C10.8396 21.8603 9.51891 22.4639 8.15784 22.4639C5.31716 22.4639 3.25519 20.3763 3.25519 17.4953C3.25519 14.6198 5.31716 12.529 8.15784 12.529C9.51858 12.529 10.8396 13.1352 11.9808 14.2773L12.0514 14.3464L13.8786 12.1819L13.8296 12.1235C12.3103 10.3641 10.4873 9.50815 8.24624 9.50815C5.9972 9.50815 3.94152 10.2496 2.4596 11.5867C0.849885 13.035 0 15.0768 0 17.4953C0 19.9125 0.849885 21.9598 2.45993 23.4085C3.94152 24.7513 5.9972 25.4889 8.24624 25.4889C10.4873 25.4889 12.3103 24.6333 13.8296 22.8736L13.8786 22.8188L12.0514 20.6543ZM15.7247 25.1944H18.9521V9.75888H15.7247V25.1944ZM31.5941 21.8382C30.7333 22.3517 29.932 22.6102 29.2123 22.6102C28.1694 22.6102 27.6982 22.0708 27.6982 20.87V12.6798H30.9852V9.77283H27.6982V4.96997L24.5348 6.62844V9.77283H21.806V12.6795H24.5348V21.3922C24.5348 23.7659 25.97 25.3877 28.1124 25.4299C29.5672 25.4578 30.4442 25.0332 30.9769 24.7228L31.0081 24.7001L31.7851 21.724L31.5941 21.8382ZM34.2672 25.1944H37.4969V9.75888H34.2669L34.2672 25.1944ZM88.9714 3.88562V18.6098L89.9769 17.0765C89.9762 17.083 94.4939 10.6739 95.0729 9.85684H97.0862C96.6578 10.4212 93.1056 15.2101 93.1056 15.2101C93.1056 15.2101 97.7328 24.6563 98 25.1944H96.0228C95.9142 24.9738 91.9392 16.7301 91.9392 16.7301L88.9717 20.8038V25.1944H87.1296V4.91613C87.2909 4.8253 88.5377 4.125 88.9714 3.88562ZM73.84 11.6853C74.7902 10.2938 76.2788 9.52631 78.0206 9.52631C81.4936 9.52631 83.3344 11.6963 83.3344 15.8028V25.1944H81.4877V16.192C81.4877 12.6983 80.2494 11.0765 77.567 11.0765C74.9995 11.0765 73.4666 12.9896 73.4666 16.1917V25.1944H71.6251V9.85684H73.4666V12.2354L73.84 11.6853ZM62.5184 9.52631C66.0921 9.52631 67.8296 11.1277 67.8296 14.4223V25.1944H65.9874V22.9569L65.6289 23.3439C64.2731 24.8094 62.717 25.5259 60.8643 25.5259C59.4122 25.5259 56.0338 25.0553 56.0338 20.689C56.0338 17.12 59.0414 15.853 61.8582 15.853C63.2729 15.853 64.6701 16.1722 65.6842 16.7288L65.9874 16.8936V14.6915C65.9874 12.2503 64.7704 11.0138 62.3654 11.0138C60.8822 11.0138 59.5439 11.3804 58.1716 12.1384C58.0504 11.866 57.625 10.9438 57.5061 10.6807C58.9407 9.9402 60.712 9.52631 62.5184 9.52631ZM57.8402 20.5385C57.8402 22.8314 59.0529 24.0948 61.256 24.0948C63.1312 24.0948 64.7965 23.2271 65.9527 21.6488L65.9874 21.5946V18.2319L65.8848 18.1735C64.7095 17.517 63.505 17.2523 61.735 17.2523C59.2983 17.2523 57.8402 18.4804 57.8402 20.5385ZM43.6166 3.88562V12.0904L43.9732 11.7077C45.3296 10.2399 46.8314 9.52631 48.558 9.52631C52.0128 9.52631 53.996 12.3476 53.996 17.2682C53.996 22.2845 51.7437 25.5259 48.2564 25.5259C46.5573 25.5259 45.1969 24.8804 43.9749 23.4957L43.6166 23.087V25.1944H41.7781V4.91613C41.9347 4.8253 43.1842 4.125 43.6166 3.88562ZM43.6603 13.4268L43.6166 13.4836V21.4675L43.6494 21.5161C44.6655 23.0568 46.3209 23.978 48.0826 23.978C50.8037 23.978 52.1827 21.7312 52.1827 17.301C52.1827 13.3434 50.6547 11.0765 47.9905 11.0765C46.3759 11.0765 44.9191 11.8669 43.6603 13.4268Z" fill="#DDEAFF"/>
<path fill-rule="evenodd" clip-rule="evenodd" d="M39.4301 7.01967C36.4752 2.92035 31.5693 0.473999 26.5776 0.473999C21.5872 0.473999 16.6799 2.92003 13.7303 7.01967L13.579 7.23083H17.299L17.3401 7.18704C19.8722 4.62683 23.177 3.27294 26.5772 3.27294C29.9774 3.27294 33.2816 4.62683 35.8184 7.18704L35.8597 7.23083H39.5784L39.4301 7.01967Z" fill="#DDEAFF"/>
</g>
<defs>
<clipPath id="clip0_3029_557">
<rect width="98" height="26" fill="white"/>
</clipPath>
</defs>
</svg>
