<svg width="125" height="121" viewBox="0 0 125 121" fill="none" xmlns="http://www.w3.org/2000/svg">
<path d="M60 2H45.3C44.7 2 44.3 1.5 44.3 1C44.3 0.5 44.8 0 45.3 0H60C60.6 0 61 0.5 61 1C61 1.5 60.6 2 60 2Z" fill="white"/>
<path d="M60 6.3999H34.3C33.7 6.3999 33.3 5.8999 33.3 5.3999C33.3 4.7999 33.8 4.3999 34.3 4.3999H60.1C60.7 4.3999 61.1 4.8999 61.1 5.3999C61 5.8999 60.6 6.3999 60 6.3999Z" fill="white"/>
<path d="M60 10.7002H26.8C26.2 10.7002 25.8 10.2002 25.8 9.7002C25.8 9.2002 26.3 8.7002 26.8 8.7002H60C60.6 8.7002 61 9.2002 61 9.7002C61 10.2002 60.6 10.7002 60 10.7002Z" fill="white"/>
<path d="M60 15.1001H21.6C21 15.1001 20.6 14.6001 20.6 14.1001C20.6 13.5001 21.1 13.1001 21.6 13.1001H60.1C60.7 13.1001 61.1 13.6001 61.1 14.1001C61 14.7001 60.6 15.1001 60 15.1001Z" fill="white"/>
<path d="M60 19.5H17C16.4 19.5 16 19 16 18.5C16 18 16.5 17.5 17 17.5H60C60.6 17.5 61 18 61 18.5C61 19 60.6 19.5 60 19.5Z" fill="white"/>
<path d="M60 23.8999H13.2C12.6 23.8999 12.2 23.3999 12.2 22.8999C12.2 22.2999 12.7 21.8999 13.2 21.8999H60.1C60.7 21.8999 61.1 22.3999 61.1 22.8999C61 23.3999 60.6 23.8999 60 23.8999Z" fill="white"/>
<path d="M60 28.2002H10.4C9.79999 28.2002 9.39999 27.7002 9.39999 27.2002C9.39999 26.6002 9.89999 26.2002 10.4 26.2002H60C60.6 26.2002 61 26.7002 61 27.2002C61 27.8002 60.6 28.2002 60 28.2002Z" fill="white"/>
<path d="M60 32.6001H7.89999C7.29999 32.6001 6.89999 32.1001 6.89999 31.6001C6.89999 31.0001 7.39999 30.6001 7.89999 30.6001H60C60.6 30.6001 61 31.1001 61 31.6001C61 32.2001 60.6 32.6001 60 32.6001Z" fill="white"/>
<path d="M60 37H5.70001C5.10001 37 4.70001 36.5 4.70001 36C4.70001 35.5 5.20001 35 5.70001 35H60.1C60.7 35 61.1 35.5 61.1 36C61.1 36.5 60.6 37 60 37Z" fill="white"/>
<path d="M60 41.3999H3.79999C3.19999 41.3999 2.79999 40.8999 2.79999 40.3999C2.79999 39.7999 3.29999 39.3999 3.79999 39.3999H60C60.6 39.3999 61 39.8999 61 40.3999C61 40.8999 60.6 41.3999 60 41.3999Z" fill="white"/>
<path d="M60 45.7002H2.5C1.9 45.7002 1.5 45.2002 1.5 44.7002C1.5 44.2002 2 43.7002 2.5 43.7002H60C60.6 43.7002 61 44.2002 61 44.7002C61 45.2002 60.6 45.7002 60 45.7002Z" fill="white"/>
<path d="M60 50.1001H2.5C1.9 50.1001 1.5 49.6001 1.5 49.1001C1.5 48.6001 2 48.1001 2.5 48.1001H60C60.6 48.1001 61 48.6001 61 49.1001C61 49.6001 60.6 50.1001 60 50.1001Z" fill="white"/>
<path d="M60 54.5H1C0.4 54.5 0 54 0 53.5C0 52.9 0.5 52.5 1 52.5H60.1C60.7 52.5 61.1 53 61.1 53.5C61 54 60.6 54.5 60 54.5Z" fill="white"/>
<path d="M60 58.8999H1C0.4 58.8999 0 58.3999 0 57.8999C0 57.3999 0.5 56.8999 1 56.8999H60.1C60.7 56.8999 61.1 57.3999 61.1 57.8999C61.1 58.3999 60.6 58.8999 60 58.8999Z" fill="white"/>
<path d="M60 63.2002H1C0.4 63.2002 0 62.7002 0 62.2002C0 61.7002 0.5 61.2002 1 61.2002H60.1C60.7 61.2002 61.1 61.7002 61.1 62.2002C61.1 62.7002 60.6 63.2002 60 63.2002Z" fill="white"/>
<path d="M60 67.6001H1C0.4 67.6001 0 67.1001 0 66.6001C0 66.0001 0.5 65.6001 1 65.6001H60.1C60.7 65.6001 61.1 66.1001 61.1 66.6001C61 67.2001 60.6 67.6001 60 67.6001Z" fill="white"/>
<path d="M60 72H2.5C1.9 72 1.5 71.5 1.5 71C1.5 70.5 2 70 2.5 70H60C60.6 70 61 70.5 61 71C61 71.5 60.6 72 60 72Z" fill="white"/>
<path d="M60 76.3999H2.5C1.9 76.3999 1.5 75.8999 1.5 75.3999C1.5 74.8999 2 74.3999 2.5 74.3999H60C60.6 74.3999 61 74.8999 61 75.3999C61 75.8999 60.6 76.3999 60 76.3999Z" fill="white"/>
<path d="M60 80.7002H3.79999C3.19999 80.7002 2.79999 80.2002 2.79999 79.7002C2.79999 79.1002 3.29999 78.7002 3.79999 78.7002H60C60.6 78.7002 61 79.2002 61 79.7002C61 80.3002 60.6 80.7002 60 80.7002Z" fill="white"/>
<path d="M60 85.1001H5.70001C5.10001 85.1001 4.70001 84.6001 4.70001 84.1001C4.70001 83.6001 5.20001 83.1001 5.70001 83.1001H60.1C60.7 83.1001 61.1 83.6001 61.1 84.1001C61.1 84.6001 60.6 85.1001 60 85.1001Z" fill="white"/>
<path d="M60 89.5H7.89999C7.29999 89.5 6.89999 89 6.89999 88.5C6.89999 87.9 7.39999 87.5 7.89999 87.5H60C60.6 87.5 61 88 61 88.5C61 89 60.6 89.5 60 89.5Z" fill="white"/>
<path d="M60 93.8999H10.4C9.79999 93.8999 9.39999 93.3999 9.39999 92.8999C9.39999 92.2999 9.89999 91.8999 10.4 91.8999H60C60.6 91.8999 61 92.3999 61 92.8999C61 93.3999 60.6 93.8999 60 93.8999Z" fill="white"/>
<path d="M60 98.2998H13.2C12.6 98.2998 12.2 97.7998 12.2 97.2998C12.2 96.6998 12.7 96.2998 13.2 96.2998H60.1C60.7 96.2998 61.1 96.7998 61.1 97.2998C61 97.7998 60.6 98.2998 60 98.2998Z" fill="white"/>
<path d="M60 102.6H17C16.4 102.6 16 102.1 16 101.6C16 101 16.5 100.6 17 100.6H60C60.6 100.6 61 101.1 61 101.6C61 102.2 60.6 102.6 60 102.6Z" fill="white"/>
<path d="M60 107H21.6C21 107 20.6 106.5 20.6 106C20.6 105.4 21.1 105 21.6 105H60.1C60.7 105 61.1 105.5 61.1 106C61 106.6 60.6 107 60 107Z" fill="white"/>
<path d="M60 111.4H26.8C26.2 111.4 25.8 110.9 25.8 110.4C25.8 109.9 26.3 109.4 26.8 109.4H60C60.6 109.4 61 109.9 61 110.4C61 110.9 60.6 111.4 60 111.4Z" fill="white"/>
<path d="M60 115.8H34.3C33.7 115.8 33.3 115.3 33.3 114.8C33.3 114.2 33.8 113.8 34.3 113.8H60.1C60.7 113.8 61.1 114.3 61.1 114.8C61 115.3 60.6 115.8 60 115.8Z" fill="white"/>
<path d="M60 120.1H45.3C44.7 120.1 44.3 119.6 44.3 119.1C44.3 118.5 44.8 118.1 45.3 118.1H60C60.6 118.1 61 118.6 61 119.1C61 119.7 60.6 120.1 60 120.1Z" fill="white"/>
<path d="M79.6 120.1H64.9C64.3 120.1 63.9 119.6 63.9 119.1C63.9 118.5 64.4 118.1 64.9 118.1H79.6C80.2 118.1 80.6 118.6 80.6 119.1C80.6 119.7 80.1 120.1 79.6 120.1Z" fill="white"/>
<path d="M90.6 115.8H64.9C64.3 115.8 63.9 115.3 63.9 114.8C63.9 114.2 64.4 113.8 64.9 113.8H90.7C91.3 113.8 91.7 114.3 91.7 114.8C91.6 115.3 91.2 115.8 90.6 115.8Z" fill="white"/>
<path d="M98.1 111.4H64.9C64.3 111.4 63.9 110.9 63.9 110.4C63.9 109.9 64.4 109.4 64.9 109.4H98.1C98.7 109.4 99.1 109.9 99.1 110.4C99.1 110.9 98.7 111.4 98.1 111.4Z" fill="white"/>
<path d="M103.3 107H64.9C64.3 107 63.9 106.5 63.9 106C63.9 105.4 64.4 105 64.9 105H103.4C104 105 104.4 105.5 104.4 106C104.3 106.6 103.9 107 103.3 107Z" fill="white"/>
<path d="M107.9 102.6H64.9C64.3 102.6 63.9 102.1 63.9 101.6C63.9 101 64.4 100.6 64.9 100.6H107.9C108.5 100.6 108.9 101.1 108.9 101.6C108.9 102.2 108.4 102.6 107.9 102.6Z" fill="white"/>
<path d="M111.7 98.2998H64.9C64.3 98.2998 63.9 97.7998 63.9 97.2998C63.9 96.6998 64.4 96.2998 64.9 96.2998H111.8C112.4 96.2998 112.8 96.7998 112.8 97.2998C112.7 97.7998 112.3 98.2998 111.7 98.2998Z" fill="white"/>
<path d="M114.5 93.8999H64.9C64.3 93.8999 63.9 93.3999 63.9 92.8999C63.9 92.2999 64.4 91.8999 64.9 91.8999H114.5C115.1 91.8999 115.5 92.3999 115.5 92.8999C115.5 93.3999 115 93.8999 114.5 93.8999Z" fill="white"/>
<path d="M117 89.5H64.9C64.3 89.5 63.9 89 63.9 88.5C63.9 87.9 64.4 87.5 64.9 87.5H117C117.6 87.5 118 88 118 88.5C118 89 117.5 89.5 117 89.5Z" fill="white"/>
<path d="M119.2 85.1001H64.9C64.3 85.1001 63.9 84.6001 63.9 84.1001C63.9 83.6001 64.4 83.1001 64.9 83.1001H119.2C119.8 83.1001 120.2 83.6001 120.2 84.1001C120.2 84.6001 119.8 85.1001 119.2 85.1001Z" fill="white"/>
<path d="M121.1 80.7002H64.9C64.3 80.7002 63.9 80.2002 63.9 79.7002C63.9 79.1002 64.4 78.7002 64.9 78.7002H121.1C121.7 78.7002 122.1 79.2002 122.1 79.7002C122.1 80.3002 121.6 80.7002 121.1 80.7002Z" fill="white"/>
<path d="M122.4 76.3999H64.9C64.3 76.3999 63.9 75.8999 63.9 75.3999C63.9 74.8999 64.4 74.3999 64.9 74.3999H122.4C123 74.3999 123.4 74.8999 123.4 75.3999C123.4 75.8999 123 76.3999 122.4 76.3999Z" fill="white"/>
<path d="M122.4 72H64.9C64.3 72 63.9 71.5 63.9 71C63.9 70.5 64.4 70 64.9 70H122.4C123 70 123.4 70.5 123.4 71C123.4 71.5 123 72 122.4 72Z" fill="white"/>
<path d="M123.9 67.6001H64.9C64.3 67.6001 63.9 67.1001 63.9 66.6001C63.9 66.0001 64.4 65.6001 64.9 65.6001H124C124.6 65.6001 125 66.1001 125 66.6001C125 67.2001 124.5 67.6001 123.9 67.6001Z" fill="white"/>
<path d="M123.9 63.2002H64.9C64.3 63.2002 63.9 62.7002 63.9 62.2002C63.9 61.7002 64.4 61.2002 64.9 61.2002H124C124.6 61.2002 125 61.7002 125 62.2002C125 62.7002 124.5 63.2002 123.9 63.2002Z" fill="white"/>
<path d="M123.9 58.8999H64.9C64.3 58.8999 63.9 58.3999 63.9 57.8999C63.9 57.3999 64.4 56.8999 64.9 56.8999H124C124.6 56.8999 125 57.3999 125 57.8999C125 58.3999 124.5 58.8999 123.9 58.8999Z" fill="white"/>
<path d="M123.9 54.5H64.9C64.3 54.5 63.9 54 63.9 53.5C63.9 53 64.4 52.5 64.9 52.5H124C124.6 52.5 125 53 125 53.5C125 54 124.5 54.5 123.9 54.5Z" fill="white"/>
<path d="M122.4 50.1001H64.9C64.3 50.1001 63.9 49.6001 63.9 49.1001C63.9 48.6001 64.4 48.1001 64.9 48.1001H122.4C123 48.1001 123.4 48.6001 123.4 49.1001C123.4 49.6001 123 50.1001 122.4 50.1001Z" fill="white"/>
<path d="M122.4 45.7002H64.9C64.3 45.7002 63.9 45.2002 63.9 44.7002C63.9 44.2002 64.4 43.7002 64.9 43.7002H122.4C123 43.7002 123.4 44.2002 123.4 44.7002C123.4 45.2002 123 45.7002 122.4 45.7002Z" fill="white"/>
<path d="M121.1 41.3999H64.9C64.3 41.3999 63.9 40.8999 63.9 40.3999C63.9 39.7999 64.4 39.3999 64.9 39.3999H121.1C121.7 39.3999 122.1 39.8999 122.1 40.3999C122.1 40.8999 121.6 41.3999 121.1 41.3999Z" fill="white"/>
<path d="M119.2 37H64.9C64.3 37 63.9 36.5 63.9 36C63.9 35.5 64.4 35 64.9 35H119.2C119.8 35 120.2 35.5 120.2 36C120.2 36.5 119.8 37 119.2 37Z" fill="white"/>
<path d="M117 32.6001H64.9C64.3 32.6001 63.9 32.1001 63.9 31.6001C63.9 31.0001 64.4 30.6001 64.9 30.6001H117C117.6 30.6001 118 31.1001 118 31.6001C118 32.2001 117.5 32.6001 117 32.6001Z" fill="white"/>
<path d="M114.5 28.2002H64.9C64.3 28.2002 63.9 27.7002 63.9 27.2002C63.9 26.6002 64.4 26.2002 64.9 26.2002H114.5C115.1 26.2002 115.5 26.7002 115.5 27.2002C115.5 27.8002 115 28.2002 114.5 28.2002Z" fill="white"/>
<path d="M111.7 23.8999H64.9C64.3 23.8999 63.9 23.3999 63.9 22.8999C63.9 22.2999 64.4 21.8999 64.9 21.8999H111.8C112.4 21.8999 112.8 22.3999 112.8 22.8999C112.7 23.3999 112.3 23.8999 111.7 23.8999Z" fill="white"/>
<path d="M107.9 19.5H64.9C64.3 19.5 63.9 19 63.9 18.5C63.9 18 64.4 17.5 64.9 17.5H107.9C108.5 17.5 108.9 18 108.9 18.5C108.9 19 108.4 19.5 107.9 19.5Z" fill="white"/>
<path d="M103.3 15.1001H64.9C64.3 15.1001 63.9 14.6001 63.9 14.1001C63.9 13.5001 64.4 13.1001 64.9 13.1001H103.4C104 13.1001 104.4 13.6001 104.4 14.1001C104.3 14.7001 103.9 15.1001 103.3 15.1001Z" fill="white"/>
<path d="M98.1 10.7002H64.9C64.3 10.7002 63.9 10.2002 63.9 9.7002C63.9 9.2002 64.4 8.7002 64.9 8.7002H98.1C98.7 8.7002 99.1 9.2002 99.1 9.7002C99.1 10.2002 98.7 10.7002 98.1 10.7002Z" fill="white"/>
<path d="M90.6 6.3999H64.9C64.3 6.3999 63.9 5.8999 63.9 5.3999C63.9 4.7999 64.4 4.3999 64.9 4.3999H90.7C91.3 4.3999 91.7 4.8999 91.7 5.3999C91.6 5.8999 91.2 6.3999 90.6 6.3999Z" fill="white"/>
<path d="M79.6 2H64.9C64.3 2 63.9 1.5 63.9 1C63.9 0.5 64.4 0 64.9 0H79.6C80.2 0 80.6 0.5 80.6 1C80.6 1.5 80.1 2 79.6 2Z" fill="white"/>
</svg>
