<svg width="59" height="59" viewBox="0 0 59 59" fill="none" xmlns="http://www.w3.org/2000/svg">
<g clip-path="url(#clip0_3029_622)">
<path d="M20.6462 28.2197L20.356 33.1436L23.4123 32.3228L20.7037 28.204L20.6462 28.2197Z" fill="#DDEAFF"/>
<path d="M55.1664 31.1797L58.8267 28.9873L57.4626 28.2268L50.8753 29.9953L47.8536 18.7006L49.8648 18.1608L52.3976 27.6346L55.101 26.9088L58.3528 24.1439L54.3382 22.7028L57.0979 19.444L52.9009 18.6822L55.0847 15.0108L50.8204 14.9564L52.3662 10.9738L48.1516 11.6288L49.0223 7.44119L44.9697 8.77746L45.1443 4.50729L41.3669 6.49205L40.844 2.2507L37.4452 4.82892L36.2248 0.732329L33.2953 3.8385L31.4193 0L29.0447 3.54963L26.5609 0.0779491L24.8 3.9682L21.7848 0.945215L20.6795 5.07193L17.2107 2.58739L16.8016 6.84118L12.9693 4.96647L13.27 9.23009L9.18089 8.01501L10.1777 12.1705L5.94542 11.6465L7.60825 15.5826L3.34659 15.7588L5.63037 19.3681L1.45563 20.2406L4.30154 23.4247L0.326815 24.9791L3.66033 27.6464L0 29.8388L3.72569 31.9166L0.475189 34.6821L4.48979 36.1232L1.73081 39.3833L5.92712 40.1451L3.74334 43.8133L8.00828 43.867L6.46179 47.8536L10.6764 47.1985L9.80445 51.3849L13.857 50.0447L13.6824 54.3148L17.4591 52.3373L17.982 56.5786L21.3809 54.0004L22.596 58.097L25.5256 54.9908L27.4015 58.8293L29.7761 55.279L32.2599 58.7507L34.0208 54.8578L37.036 57.8808L38.1413 53.7541L41.6107 56.24L42.0193 51.9855L45.8515 53.8609L45.558 49.596L49.6471 50.811L48.6503 46.6548L52.8826 47.1789L51.2198 43.2428L55.4814 43.0666L53.1976 39.4573L57.3704 38.5815L54.5252 35.3981L58.4999 33.847L55.1664 31.1797ZM15.3185 39.5431L12.9935 30.8482L12.7399 40.2355L10.9954 40.7039L6.09314 32.7013L8.41745 41.3982L6.40557 41.9366L3.3858 30.6412L6.4363 29.8224L11.0195 37.2977L11.2588 28.5274L14.3093 27.708L17.3297 39.0034L15.3185 39.5431ZM26.2341 36.6125L24.5111 33.9963L20.239 35.1439L20.0547 38.2743L18.0402 38.8128L18.9252 26.4693L21.3234 25.8247L28.2519 36.0714L26.2341 36.6125ZM35.4843 23.988L38.0138 33.4493L36.0026 33.9891L33.473 24.5278L29.3552 25.6335L31.8847 35.0948L29.8742 35.6339L27.3446 26.1732L24.1189 27.0405L23.6287 25.2064L38.2223 21.2886L38.7132 23.1227L35.4843 23.988ZM42.2526 32.3109L39.2322 21.0155L46.4607 19.0746L46.9509 20.9087L41.7336 22.3098L42.4526 25.0001L47.245 23.7123L47.732 25.5339L42.9435 26.8217L43.7729 29.9351L49.0876 28.5091L49.5778 30.3432L42.2526 32.3109Z" fill="#DDEAFF"/>
<path d="M38.2224 21.2866L23.6255 25.2063L24.1157 27.0404L27.3446 26.1732L29.8742 35.6345L31.8854 35.0948L29.3559 25.6334L33.4731 24.5277L36.0026 33.9891L38.0138 33.4487L35.4843 23.988L38.7132 23.1207L38.2224 21.2866Z" fill="#202227"/>
<path d="M11.2587 28.5273L11.0195 37.2976L6.43623 29.8223L3.38574 30.6411L6.40551 41.9365L8.41739 41.3961L6.09242 32.7012L10.9953 40.7038L12.7398 40.2354L12.9934 30.8481L15.3184 39.5431L17.3296 39.0033L14.3099 27.7079L11.2587 28.5273Z" fill="#202227"/>
<path d="M49.0905 28.5092L43.7732 29.9365L42.9405 26.8218L47.7322 25.5353L47.2453 23.7137L42.4535 25.0008L41.7345 22.3099L46.9511 20.9088L46.4609 19.0747L39.2324 21.0156L42.2528 32.311L49.5807 30.3433L49.0905 28.5092Z" fill="#202227"/>
<path d="M21.3222 25.8247L18.924 26.4693L18.0403 38.8127L20.0554 38.2717L20.2397 35.1413L24.5112 33.9963L26.2329 36.6164L28.248 36.0753L21.3222 25.8247ZM20.3561 33.1447L20.6463 28.2208L20.7038 28.2051L23.4125 32.324L20.3561 33.1447Z" fill="#202227"/>
<path d="M52.3976 27.6347L49.8647 18.1609L47.8535 18.7006L50.8739 29.9961L57.4619 28.2268L55.099 26.9095V26.9089L52.3976 27.6347Z" fill="#202227"/>
<path d="M51.6713 50.0131H51.4785V48.8387H51.923C52.0352 48.831 52.147 48.8587 52.2426 48.9179C52.2802 48.9489 52.3097 48.9886 52.3285 49.0336C52.3473 49.0785 52.3548 49.1274 52.3505 49.176C52.3541 49.2189 52.3482 49.262 52.333 49.3022C52.3179 49.3425 52.2939 49.3788 52.2629 49.4085C52.2005 49.4592 52.1245 49.49 52.0446 49.497L52.3714 50.0131H52.1531L51.8504 49.5107H51.6694L51.6713 50.0131ZM51.8864 49.3463C51.9223 49.3463 51.9563 49.3463 51.9897 49.3424C52.0197 49.34 52.049 49.3317 52.0759 49.3181C52.1003 49.3052 52.1208 49.286 52.1354 49.2625C52.1521 49.2318 52.1598 49.1971 52.1576 49.1623C52.1593 49.1321 52.151 49.1021 52.1341 49.0771C52.1179 49.0564 52.0971 49.0398 52.0733 49.0286C52.0472 49.0171 52.0194 49.01 51.991 49.0077C51.9619 49.0046 51.9326 49.003 51.9034 49.0031H51.6713V49.3463H51.8864Z" fill="#DDEAFF"/>
<path d="M51.8833 50.4953C51.6722 50.4953 51.4658 50.4326 51.2903 50.315C51.1148 50.1975 50.978 50.0304 50.8972 49.835C50.8164 49.6395 50.7952 49.4244 50.8364 49.2169C50.8776 49.0095 50.9793 48.8189 51.1285 48.6693C51.2778 48.5197 51.468 48.4178 51.6751 48.3765C51.8821 48.3352 52.0967 48.3564 52.2918 48.4374C52.4868 48.5183 52.6535 48.6554 52.7708 48.8314C52.8881 49.0073 52.9507 49.2141 52.9507 49.4256C52.9503 49.7092 52.8378 49.9811 52.6377 50.1816C52.4376 50.3821 52.1663 50.495 51.8833 50.4953ZM51.8833 48.5433C51.709 48.5433 51.5386 48.5951 51.3937 48.6922C51.2488 48.7892 51.1359 48.9271 51.0692 49.0885C51.0025 49.2499 50.9851 49.4275 51.0192 49.5988C51.0532 49.7701 51.1372 49.9274 51.2605 50.0509C51.3838 50.1743 51.5408 50.2584 51.7118 50.2924C51.8828 50.3264 52.0599 50.3088 52.2209 50.2419C52.3819 50.1749 52.5195 50.0617 52.6162 49.9164C52.713 49.7711 52.7645 49.6003 52.7644 49.4256C52.7642 49.1916 52.6713 48.9671 52.5061 48.8017C52.3409 48.6362 52.1169 48.5433 51.8833 48.5433Z" fill="#DDEAFF"/>
</g>
<defs>
<clipPath id="clip0_3029_622">
<rect width="58.826" height="58.826" fill="white"/>
</clipPath>
</defs>
</svg>
