<svg width="84" height="70" viewBox="0 0 84 70" fill="none" xmlns="http://www.w3.org/2000/svg">
<path d="M67.7886 34.0257C67.7886 50.5633 54.382 63.9696 37.8441 63.9696C21.3063 63.9696 7.8997 50.5633 7.8997 34.0257C7.8997 17.4882 21.3063 4.08183 37.8441 4.08183C54.382 4.08183 67.7886 17.4882 67.7886 34.0257Z" stroke="#DDEAFF" stroke-width="0.814043"/>
<path d="M36.0519 9.84458C36.2399 9.84458 36.3922 9.69224 36.3922 9.50432C36.3922 9.3164 36.2399 9.16406 36.0519 9.16406C35.864 9.16406 35.7117 9.3164 35.7117 9.50432C35.7117 9.69224 35.864 9.84458 36.0519 9.84458Z" fill="#DDEAFF"/>
<path d="M39.5453 10.2981C39.7333 10.2981 39.8856 10.1457 39.8856 9.95781C39.8856 9.76989 39.7333 9.61755 39.5453 9.61755C39.3574 9.61755 39.2051 9.76989 39.2051 9.95781C39.2051 10.1457 39.3574 10.2981 39.5453 10.2981Z" fill="#DDEAFF"/>
<path d="M44.1276 16.4681C44.3155 16.4681 44.4679 16.3158 44.4679 16.1279C44.4679 15.9399 44.3155 15.7876 44.1276 15.7876C43.9397 15.7876 43.7874 15.9399 43.7874 16.1279C43.7874 16.3158 43.9397 16.4681 44.1276 16.4681Z" fill="#DDEAFF"/>
<path d="M18.9933 48.2256C19.1813 48.2256 19.3336 48.0732 19.3336 47.8853C19.3336 47.6974 19.1813 47.545 18.9933 47.545C18.8054 47.545 18.6531 47.6974 18.6531 47.8853C18.6531 48.0732 18.8054 48.2256 18.9933 48.2256Z" fill="#DDEAFF"/>
<path d="M19.8781 50.9475C20.066 50.9475 20.2184 50.7951 20.2184 50.6072C20.2184 50.4193 20.066 50.267 19.8781 50.267C19.6902 50.267 19.5378 50.4193 19.5378 50.6072C19.5378 50.7951 19.6902 50.9475 19.8781 50.9475Z" fill="#DDEAFF"/>
<path d="M15.6589 48.5483C15.7996 48.5483 15.9137 48.4342 15.9137 48.2935C15.9137 48.1528 15.7996 48.0387 15.6589 48.0387C15.5181 48.0387 15.4041 48.1528 15.4041 48.2935C15.4041 48.4342 15.5181 48.5483 15.6589 48.5483Z" fill="#DDEAFF"/>
<path d="M29.4963 53.8964C29.6374 53.8964 29.7519 53.782 29.7519 53.6408C29.7519 53.4997 29.6374 53.3853 29.4963 53.3853C29.3551 53.3853 29.2407 53.4997 29.2407 53.6408C29.2407 53.782 29.3551 53.8964 29.4963 53.8964Z" fill="#DDEAFF"/>
<path d="M51.1989 49.3874C51.3396 49.3874 51.4537 49.2734 51.4537 49.1326C51.4537 48.9919 51.3396 48.8778 51.1989 48.8778C51.0582 48.8778 50.9441 48.9919 50.9441 49.1326C50.9441 49.2734 51.0582 49.3874 51.1989 49.3874Z" fill="#DDEAFF"/>
<path d="M57.5058 42.5375C57.647 42.5375 57.7614 42.4231 57.7614 42.2819C57.7614 42.1408 57.647 42.0264 57.5058 42.0264C57.3647 42.0264 57.2502 42.1408 57.2502 42.2819C57.2502 42.4231 57.3647 42.5375 57.5058 42.5375Z" fill="#DDEAFF"/>
<path d="M26.5927 18.3727C26.7334 18.3727 26.8475 18.2586 26.8475 18.1179C26.8475 17.9771 26.7334 17.863 26.5927 17.863C26.452 17.863 26.3379 17.9771 26.3379 18.1179C26.3379 18.2586 26.452 18.3727 26.5927 18.3727Z" fill="#DDEAFF"/>
<path d="M33.5341 13.275C33.6748 13.275 33.7889 13.1609 33.7889 13.0202C33.7889 12.8795 33.6748 12.7654 33.5341 12.7654C33.3934 12.7654 33.2793 12.8795 33.2793 13.0202C33.2793 13.1609 33.3934 13.275 33.5341 13.275Z" fill="#DDEAFF"/>
<path d="M32.7802 12.776C32.9209 12.776 33.035 12.6619 33.035 12.5212C33.035 12.3804 32.9209 12.2664 32.7802 12.2664C32.6395 12.2664 32.5254 12.3804 32.5254 12.5212C32.5254 12.6619 32.6395 12.776 32.7802 12.776Z" fill="#DDEAFF"/>
<path d="M32.0995 12.2767C32.2403 12.2767 32.3544 12.1626 32.3544 12.0219C32.3544 11.8812 32.2403 11.7671 32.0995 11.7671C31.9588 11.7671 31.8447 11.8812 31.8447 12.0219C31.8447 12.1626 31.9588 12.2767 32.0995 12.2767Z" fill="#DDEAFF"/>
<path d="M27.6816 19.6892C27.8223 19.6892 27.9364 19.5751 27.9364 19.4344C27.9364 19.2936 27.8223 19.1796 27.6816 19.1796C27.5408 19.1796 27.4268 19.2936 27.4268 19.4344C27.4268 19.5751 27.5408 19.6892 27.6816 19.6892Z" fill="#DDEAFF"/>
<path d="M37.9059 6.42442C38.0467 6.42442 38.1608 6.31034 38.1608 6.16961C38.1608 6.02888 38.0467 5.91479 37.9059 5.91479C37.7652 5.91479 37.6511 6.02888 37.6511 6.16961C37.6511 6.31034 37.7652 6.42442 37.9059 6.42442Z" fill="#DDEAFF"/>
<path d="M39.5854 13.774C39.7261 13.774 39.8402 13.6599 39.8402 13.5192C39.8402 13.3785 39.7261 13.2644 39.5854 13.2644C39.4447 13.2644 39.3306 13.3785 39.3306 13.5192C39.3306 13.6599 39.4447 13.774 39.5854 13.774Z" fill="#DDEAFF"/>
<path d="M36.9367 12.3387C37.0774 12.3387 37.1915 12.2246 37.1915 12.0839C37.1915 11.9432 37.0774 11.8291 36.9367 11.8291C36.796 11.8291 36.6819 11.9432 36.6819 12.0839C36.6819 12.2246 36.796 12.3387 36.9367 12.3387Z" fill="#DDEAFF"/>
<path d="M32.3998 14.2904C32.5406 14.2904 32.6547 14.1763 32.6547 14.0356C32.6547 13.8948 32.5406 13.7808 32.3998 13.7808C32.2591 13.7808 32.145 13.8948 32.145 14.0356C32.145 14.1763 32.2591 14.2904 32.3998 14.2904Z" fill="#DDEAFF"/>
<path d="M52.4074 56.1196C52.5481 56.1196 52.6622 56.0055 52.6622 55.8648C52.6622 55.7241 52.5481 55.61 52.4074 55.61C52.2667 55.61 52.1526 55.7241 52.1526 55.8648C52.1526 56.0055 52.2667 56.1196 52.4074 56.1196Z" fill="#DDEAFF"/>
<path d="M18.5625 49.8648C18.7036 49.8648 18.818 49.7504 18.818 49.6092C18.818 49.4681 18.7036 49.3536 18.5625 49.3536C18.4213 49.3536 18.3069 49.4681 18.3069 49.6092C18.3069 49.7504 18.4213 49.8648 18.5625 49.8648Z" fill="#DDEAFF"/>
<path d="M36.3015 53.1538C36.4426 53.1538 36.557 53.0394 36.557 52.8983C36.557 52.7571 36.4426 52.6427 36.3015 52.6427C36.1603 52.6427 36.0459 52.7571 36.0459 52.8983C36.0459 53.0394 36.1603 53.1538 36.3015 53.1538Z" fill="#DDEAFF"/>
<path d="M23.8418 49.6604C23.9829 49.6604 24.0973 49.546 24.0973 49.4049C24.0973 49.2637 23.9829 49.1493 23.8418 49.1493C23.7006 49.1493 23.5862 49.2637 23.5862 49.4049C23.5862 49.546 23.7006 49.6604 23.8418 49.6604Z" fill="#DDEAFF"/>
<path d="M26.0483 53.262C26.1895 53.262 26.3039 53.1476 26.3039 53.0064C26.3039 52.8653 26.1895 52.7509 26.0483 52.7509C25.9072 52.7509 25.7927 52.8653 25.7927 53.0064C25.7927 53.1476 25.9072 53.262 26.0483 53.262Z" fill="#DDEAFF"/>
<path d="M42.2902 50.9929C42.431 50.9929 42.545 50.8788 42.545 50.7381C42.545 50.5974 42.431 50.4833 42.2902 50.4833C42.1495 50.4833 42.0354 50.5974 42.0354 50.7381C42.0354 50.8788 42.1495 50.9929 42.2902 50.9929Z" fill="#DDEAFF"/>
<path d="M51.2443 45.9397C51.3851 45.9397 51.4991 45.8256 51.4991 45.6849C51.4991 45.5441 51.3851 45.4301 51.2443 45.4301C51.1036 45.4301 50.9895 45.5441 50.9895 45.6849C50.9895 45.8256 51.1036 45.9397 51.2443 45.9397Z" fill="#DDEAFF"/>
<path d="M58.0329 49.0412C58.1736 49.0412 58.2877 48.9272 58.2877 48.7864C58.2877 48.6457 58.1736 48.5316 58.0329 48.5316C57.8922 48.5316 57.7781 48.6457 57.7781 48.7864C57.7781 48.9272 57.8922 49.0412 58.0329 49.0412Z" fill="#DDEAFF"/>
<path d="M60.3469 50.5218C60.4876 50.5218 60.6017 50.4078 60.6017 50.267C60.6017 50.1263 60.4876 50.0122 60.3469 50.0122C60.2061 50.0122 60.092 50.1263 60.092 50.267C60.092 50.4078 60.2061 50.5218 60.3469 50.5218Z" fill="#DDEAFF"/>
<path d="M60.727 46.4839C60.8677 46.4839 60.9818 46.3698 60.9818 46.2291C60.9818 46.0883 60.8677 45.9742 60.727 45.9742C60.5863 45.9742 60.4722 46.0883 60.4722 46.2291C60.4722 46.3698 60.5863 46.4839 60.727 46.4839Z" fill="#DDEAFF"/>
<path d="M26.9723 40.7677C27.1131 40.7677 27.2272 40.6536 27.2272 40.5129C27.2272 40.3721 27.1131 40.2581 26.9723 40.2581C26.8316 40.2581 26.7175 40.3721 26.7175 40.5129C26.7175 40.6536 26.8316 40.7677 26.9723 40.7677Z" fill="#DDEAFF"/>
<path d="M27.069 46.7055C27.2569 46.7055 27.4093 46.5532 27.4093 46.3653C27.4093 46.1774 27.2569 46.025 27.069 46.025C26.8811 46.025 26.7288 46.1774 26.7288 46.3653C26.7288 46.5532 26.8811 46.7055 27.069 46.7055Z" fill="#DDEAFF"/>
<path d="M29.1105 51.0155C29.2984 51.0155 29.4508 50.8631 29.4508 50.6752C29.4508 50.4873 29.2984 50.335 29.1105 50.335C28.9226 50.335 28.7703 50.4873 28.7703 50.6752C28.7703 50.8631 28.9226 51.0155 29.1105 51.0155Z" fill="#DDEAFF"/>
<path d="M53.5641 46.5239C53.7521 46.5239 53.9044 46.3716 53.9044 46.1836C53.9044 45.9957 53.7521 45.8434 53.5641 45.8434C53.3762 45.8434 53.2239 45.9957 53.2239 46.1836C53.2239 46.3716 53.3762 46.5239 53.5641 46.5239Z" fill="#DDEAFF"/>
<path d="M62.3657 46.0251C62.5536 46.0251 62.7059 45.8728 62.7059 45.6849C62.7059 45.4969 62.5536 45.3446 62.3657 45.3446C62.1777 45.3446 62.0254 45.4969 62.0254 45.6849C62.0254 45.8728 62.1777 46.0251 62.3657 46.0251Z" fill="#DDEAFF"/>
<path d="M58.0102 44.1653C58.1981 44.1653 58.3504 44.0129 58.3504 43.825C58.3504 43.6371 58.1981 43.4847 58.0102 43.4847C57.8223 43.4847 57.6699 43.6371 57.6699 43.825C57.6699 44.0129 57.8223 44.1653 58.0102 44.1653Z" fill="#DDEAFF"/>
<path d="M53.5641 44.3465C53.7521 44.3465 53.9044 44.1942 53.9044 44.0063C53.9044 43.8184 53.7521 43.666 53.5641 43.666C53.3762 43.666 53.2239 43.8184 53.2239 44.0063C53.2239 44.1942 53.3762 44.3465 53.5641 44.3465Z" fill="#DDEAFF"/>
<path d="M44.3928 9.29108L45.239 9.21018L44.3943 9.16254C44.3679 8.99922 44.2371 8.87143 44.0722 8.85026L43.9913 8.00793L43.9429 8.85706C43.7902 8.89109 43.673 9.01888 43.6541 9.17766L42.7891 9.2563L43.6601 9.30318C43.6919 9.44911 43.8098 9.56329 43.9581 9.59051L44.0367 10.4585L44.0828 9.59202C44.2393 9.56556 44.3633 9.44533 44.3928 9.29108Z" fill="#DDEAFF"/>
<path d="M30.1126 18.7108L30.9587 18.6299L30.1141 18.5822C30.0884 18.4189 29.9568 18.2911 29.792 18.2699L29.7111 17.4276L29.6634 18.2767C29.5099 18.3108 29.3927 18.4386 29.3738 18.5973L28.5088 18.676L29.3799 18.7229C29.4116 18.8688 29.5296 18.983 29.6778 19.0102L29.7564 19.8782L29.8033 19.0117C29.9598 18.986 30.0838 18.865 30.1126 18.7108Z" fill="#DDEAFF"/>
<path d="M61.7456 43.616L62.5917 43.5351L61.7471 43.4875C61.7214 43.3242 61.5898 43.1964 61.425 43.1752L61.3441 42.3329L61.2964 43.182C61.1437 43.216 61.0265 43.3438 61.0076 43.5026L60.1426 43.5813L61.0137 43.6281C61.0454 43.7741 61.1634 43.8882 61.3116 43.9155L61.3902 44.7835L61.4371 43.917C61.5921 43.8913 61.7161 43.771 61.7456 43.616Z" fill="#DDEAFF"/>
<path d="M27.2542 56.6383L28.1003 56.5574L27.2557 56.5098C27.2292 56.3465 27.0984 56.2187 26.9336 56.1975L26.8527 55.356L26.805 56.2043C26.6515 56.2384 26.5343 56.3661 26.5154 56.5249L25.6504 56.6036L26.5215 56.6504C26.5532 56.7964 26.6712 56.9113 26.8194 56.9378L26.898 57.8058L26.9449 56.9393C27.1007 56.9136 27.2254 56.7926 27.2542 56.6383Z" fill="#DDEAFF"/>
<path d="M59.0576 50.2866L59.9037 50.2057L59.0591 50.158C59.0334 49.9947 58.9018 49.8669 58.737 49.8457L58.6561 49.0034L58.6085 49.8518C58.4557 49.8858 58.3385 50.0136 58.3196 50.1724L57.4546 50.251L58.3257 50.2979C58.3574 50.4438 58.4754 50.558 58.6236 50.5852L58.7022 51.4533L58.7491 50.5867C58.9041 50.5618 59.0289 50.4408 59.0576 50.2866Z" fill="#DDEAFF"/>
<path d="M45.0417 26.7557C41.5128 28.1273 38.0709 29.3514 35.1665 30.2603C29.2649 32.1083 13.1175 37.1108 3.36328 43.4169L4.17991 43.7345C10.1232 40.3773 13.9863 39.3225 17.6997 38.1543C21.7375 36.884 34.7907 33.8292 40.7015 32.1657C42.6985 31.6039 45.0372 30.8682 47.5143 29.973C46.9381 29.1692 46.3302 28.3632 45.6905 27.5587C45.4765 27.2872 45.2595 27.0195 45.0417 26.7557ZM49.3532 32.6981C48.4988 33.275 47.7827 33.7355 47.2814 34.0258C44.3778 35.7044 30.2221 45.3677 27.0017 47.5907C23.7813 49.8137 14.843 58.2521 12.2116 60.702L12.1209 61.6993C20.6048 54.0775 23.2664 52.1978 26.6388 49.6323C30.8127 46.4565 39.447 40.5814 42.3816 38.6987C45.1869 36.8991 47.717 35.2439 49.9876 33.7294C49.9506 33.6674 49.9135 33.6054 49.8765 33.5426C49.7056 33.2621 49.5309 32.9808 49.3532 32.6981ZM62.6152 18.6916C58.4821 21.1142 51.968 24.0381 45.6482 26.519C45.7994 26.7042 45.9499 26.891 46.0996 27.0793C46.8058 27.9685 47.472 28.8637 48.0988 29.7597C53.0667 27.9299 58.5177 25.474 62.8428 22.5017C60.7823 24.454 53.9702 29.545 49.8168 32.3827C50.0307 32.7313 50.2379 33.0799 50.4383 33.427C56.7309 29.2161 60.9653 26.1167 63.4326 24.0442C66.8352 21.186 74.5932 14.7892 77.5422 6.21472C72.3694 12.7938 66.2537 16.5585 62.6152 18.6916Z" fill="#DDEAFF"/>
<path d="M33.9386 41.5409C33.2695 40.6986 32.3439 39.5705 31.6491 38.6956C30.7198 37.5259 29.86 36.3441 29.0721 35.1638C28.815 35.228 28.5587 35.2923 28.3024 35.3566C29.2536 36.8408 30.3099 38.3228 31.4608 39.7716C32.3016 40.8302 33.0661 41.6823 33.4577 42.2124C33.5371 42.3197 33.6944 42.5572 33.9069 42.8732C34.1519 42.7069 34.3991 42.539 34.6487 42.3696C34.4075 42.1073 34.1693 41.8313 33.9386 41.5409ZM38.8233 45.9748C38.2736 45.4546 36.9405 44.5858 35.553 43.2823C35.2468 43.4925 34.9375 43.7057 34.6275 43.9205C35.5235 45.1832 36.7439 46.734 37.6997 47.1862C39.1394 47.8682 39.5273 46.6418 38.8233 45.9748ZM46.0997 27.0792C38.1662 17.0938 28.4748 11.6081 24.2963 14.9283C21.051 17.5067 22.3833 25.0422 26.8566 32.9581C27.088 32.8787 27.3171 32.8009 27.544 32.7237C23.0291 25.0112 21.7935 17.8439 24.8544 15.4115C28.7009 12.3552 37.9885 17.8621 45.6921 27.5579C47.2868 29.5646 48.6887 31.579 49.8758 33.5426C54.4217 41.0661 55.8168 47.8697 52.6758 50.647C51.7148 51.4968 48.7779 51.8303 44.9307 50.0988C44.877 50.1661 44.9632 50.3483 45.0305 50.3929C48.3514 51.7282 51.5325 52.2371 53.1386 50.9615C56.9979 47.8947 54.0331 37.0647 46.0997 27.0792Z" fill="#DDEAFF"/>
<path d="M12.0747 28.264H17.156L21.4206 35.5002C21.4206 35.5002 21.4206 30.2602 21.4206 29.8519C21.4206 29.2168 20.6153 28.3888 20.3318 28.264C20.672 28.264 23.6437 28.264 23.8478 28.264C23.6323 28.3207 22.9404 29.16 22.9404 29.8519C22.9404 30.1922 22.9404 37.7912 22.9404 38.1542C22.9404 38.6646 23.6777 39.3678 24.0293 39.64H19.1295L14.7968 32.3698C14.7968 32.3698 14.7968 37.7912 14.7968 38.0861C14.7968 38.6532 15.3526 39.1976 15.931 39.6626H12.1881C12.7212 39.4358 13.2316 38.7213 13.277 38.1542C13.3223 37.5871 13.277 30.2716 13.277 29.954C13.277 29.2621 12.6078 28.695 12.0747 28.264Z" fill="#DDEAFF"/>
<path d="M58.5546 39.64H65.3145C64.9402 39.5492 64.5205 39.1069 64.2937 38.5171C64.0668 37.9273 60.4827 28.264 60.4827 28.264H57.9126C57.1837 28.7888 56.4026 29.3423 55.5686 29.9252C55.5663 29.9464 55.564 29.9676 55.5602 29.988C55.4483 30.6685 53.437 37.953 53.3145 38.313C53.1444 38.812 52.271 39.3678 51.9194 39.6626H55.5602C55.1973 39.2543 54.9024 38.8574 54.9705 38.4037C55.0385 37.95 55.2427 37.0427 55.2427 37.0427H59.0082C59.1784 37.4963 59.3054 37.9039 59.3712 38.2903C59.4506 38.7553 58.9742 39.277 58.5546 39.64ZM55.5829 35.5909L56.8532 31.4398L58.5319 35.5909H55.5829ZM55.0105 28.6784C55.1973 28.5408 55.3848 28.4024 55.5716 28.264H54.5848C54.6831 28.3548 54.8457 28.4977 55.0105 28.6784Z" fill="#DDEAFF"/>
<path d="M29.156 38.4037C29.2241 37.95 29.4282 37.0427 29.4282 37.0427H33.1938C33.3639 37.4963 33.491 37.9039 33.5567 38.2903C33.6361 38.7553 33.1598 39.277 32.7401 39.64H38.6917C38.8157 39.5568 38.9389 39.4736 39.0622 39.3912C38.8316 39.187 38.6191 38.8808 38.4792 38.5171C38.2524 37.9273 34.6683 28.264 34.6683 28.264H28.7704C29.0539 28.5249 29.8706 29.2281 29.7458 29.988C29.6346 30.6685 27.6226 37.953 27.5001 38.313C27.3299 38.812 26.4566 39.3678 26.105 39.6626H29.7458C29.3828 39.2543 29.088 38.8574 29.156 38.4037ZM31.0388 31.4398L32.7174 35.5909H29.7685L31.0388 31.4398Z" fill="#DDEAFF"/>
<path d="M49.7147 33.9109C48.6047 34.6504 47.4334 35.4224 46.1994 36.2284C46.7529 36.4969 47.1937 36.8341 47.2361 37.2696C47.3147 38.0878 45.6709 38.4832 44.185 38.3131C43.8879 38.2791 43.596 38.2012 43.3178 38.0968C43.0092 38.2957 42.6977 38.4961 42.3817 38.6987C42.0603 38.9051 41.6701 39.1592 41.2248 39.4526V40.6268C41.5197 40.0484 42.1646 39.5304 42.6652 39.504C42.8807 39.4926 43.6293 40.1845 46.7143 40.0144C48.2115 39.9319 51.1037 38.3358 51.0584 36.4984C51.0311 35.4126 50.464 34.5657 49.7147 33.9109ZM41.224 36.7479V37.9441C41.497 37.7619 41.7662 37.5827 42.03 37.408C41.6149 37.1192 41.3208 36.8492 41.224 36.7479ZM48.6599 33.1601C48.3725 32.9899 48.0814 32.841 47.8024 32.7094C46.3506 32.0289 44.8308 31.9042 44.5132 30.9855C44.2894 30.3375 44.9215 29.7378 46.4641 29.7605C48.0066 29.7832 49.4357 30.7019 49.8213 31.0308V28.1046C49.7079 28.218 49.2104 28.7889 48.7552 28.6944C47.8818 28.5129 46.396 28.2763 44.6947 28.2861C42.7438 28.2974 41.0652 29.8051 41.0085 31.7113C40.9291 34.3767 43.0614 35.1026 44.2637 35.5222C44.3877 35.5653 44.5291 35.6114 44.6826 35.6606C45.8357 34.9105 46.7476 34.3328 47.2814 34.0251C47.6399 33.8187 48.1094 33.5223 48.6599 33.1601Z" fill="#DDEAFF"/>
</svg>
