<svg width="88" height="91" viewBox="0 0 88 91" fill="none" xmlns="http://www.w3.org/2000/svg">
<path d="M11.7842 24.0277V0.850013H14.9137L19.8316 14.8152H19.8955V0.850013H23.1528V24.0277H20.0871L15.1054 10.0951H15.0415V24.0277H11.7842Z" fill="#FFFFFF"></path>
<path d="M25.9099 6.31891C25.9099 5.38572 26.0696 4.56105 26.3889 3.84489C26.7083 3.12872 27.1341 2.53191 27.6663 2.05447C28.1772 1.59873 28.7521 1.2515 29.3907 1.01278C30.0507 0.774055 30.7107 0.654694 31.3707 0.654694C32.0307 0.654694 32.68 0.774055 33.3187 1.01278C33.9787 1.2515 34.5748 1.59873 35.107 2.05447C35.6179 2.53191 36.0331 3.12872 36.3524 3.84489C36.6718 4.56105 36.8315 5.38572 36.8315 6.31891V18.5588C36.8315 19.5354 36.6718 20.3709 36.3524 21.0654C36.0331 21.7599 35.6179 22.335 35.107 22.7907C34.5748 23.2681 33.9787 23.6262 33.3187 23.865C32.68 24.1037 32.0307 24.223 31.3707 24.223C30.7107 24.223 30.0507 24.1037 29.3907 23.865C28.7521 23.6262 28.1772 23.2681 27.6663 22.7907C27.1341 22.335 26.7083 21.7599 26.3889 21.0654C26.0696 20.3709 25.9099 19.5354 25.9099 18.5588V6.31891ZM29.1672 18.5588C29.1672 19.3618 29.3801 19.9586 29.8059 20.3492C30.253 20.7182 30.7746 20.9026 31.3707 20.9026C31.9668 20.9026 32.4777 20.7182 32.9035 20.3492C33.3506 19.9586 33.5741 19.3618 33.5741 18.5588V6.31891C33.5741 5.51594 33.3506 4.92998 32.9035 4.56105C32.4777 4.17041 31.9668 3.9751 31.3707 3.9751C30.7746 3.9751 30.253 4.17041 29.8059 4.56105C29.3801 4.92998 29.1672 5.51594 29.1672 6.31891V18.5588Z" fill="#FFFFFF"></path>
<path d="M39.6986 24.0277V0.850013H49.4066V3.9751H42.9559V11.0065H48.5763V14.1316H42.9559V24.0277H39.6986Z" fill="#FFFFFF"></path>
<path d="M51.518 24.0277V0.850013H54.7753V20.7073H61.2261V24.0277H51.518Z" fill="#FFFFFF"></path>
<path d="M69.916 15.922L68.3192 7.52337H68.2554L66.6587 15.922H69.916ZM61.8685 24.0277L66.9461 0.850013H69.6605L74.7381 24.0277H71.4807L70.5227 19.0471H66.0838L65.1258 24.0277H61.8685Z" fill="#FFFFFF"></path>
<path d="M76.1504 6.31891C76.1504 5.38572 76.3101 4.56105 76.6294 3.84489C76.9488 3.12872 77.3745 2.53191 77.9068 2.05447C78.4177 1.59873 78.9926 1.2515 79.6312 1.01278C80.2912 0.774055 80.9512 0.654694 81.6112 0.654694C82.2712 0.654694 82.9205 0.774055 83.5592 1.01278C84.2191 1.2515 84.8153 1.59873 85.3475 2.05447C85.8584 2.53191 86.2736 3.12872 86.5929 3.84489C86.9123 4.56105 87.072 5.38572 87.072 6.31891V7.49082H83.8146V6.31891C83.8146 5.51594 83.5911 4.92998 83.144 4.56105C82.7182 4.17041 82.2073 3.9751 81.6112 3.9751C81.0151 3.9751 80.4935 4.17041 80.0464 4.56105C79.6206 4.92998 79.4077 5.51594 79.4077 6.31891V18.5588C79.4077 19.3618 79.6206 19.9586 80.0464 20.3492C80.4935 20.7182 81.0151 20.9026 81.6112 20.9026C82.2073 20.9026 82.7182 20.7182 83.144 20.3492C83.5911 19.9586 83.8146 19.3618 83.8146 18.5588V14.1967H81.228V11.267H87.072V18.5588C87.072 19.5354 86.9123 20.3709 86.5929 21.0654C86.2736 21.7599 85.8584 22.335 85.3475 22.7907C84.8153 23.2681 84.2191 23.6262 83.5592 23.865C82.9205 24.1037 82.2712 24.223 81.6112 24.223C80.9512 24.223 80.2912 24.1037 79.6312 23.865C78.9926 23.6262 78.4177 23.2681 77.9068 22.7907C77.3745 22.335 76.9488 21.7599 76.6294 21.0654C76.3101 20.3709 76.1504 19.5354 76.1504 18.5588V6.31891Z" fill="#FFFFFF"></path>
<path fill-rule="evenodd" clip-rule="evenodd" d="M3.27338 0V91H0V0H3.27338Z" fill="#FFFFFF"></path>
<path d="M11.7842 51.0648V28.1511H16.5341C17.5754 28.1511 18.4574 28.312 19.18 28.6338C19.9238 28.9556 20.5295 29.3847 20.9971 29.9211C21.4646 30.4575 21.794 31.0797 21.9853 31.7877C22.1978 32.4742 22.3041 33.193 22.3041 33.9439V34.7806C22.3041 35.4028 22.2509 35.9284 22.1447 36.3575C22.0597 36.7866 21.9215 37.1621 21.7303 37.4839C21.369 38.0846 20.8164 38.5996 20.0726 39.0286C20.8377 39.3934 21.4009 39.9298 21.7621 40.6378C22.1234 41.3458 22.3041 42.3112 22.3041 43.5341V44.8214C22.3041 46.8382 21.8153 48.3829 20.8377 49.4557C19.8813 50.5284 18.3405 51.0648 16.2153 51.0648H11.7842ZM15.0358 40.4447V47.7822H16.4384C17.0973 47.7822 17.6073 47.6856 17.9686 47.4925C18.3511 47.2995 18.6381 47.0313 18.8293 46.688C19.0206 46.3447 19.1375 45.9371 19.18 45.4651C19.2225 44.9931 19.2437 44.4782 19.2437 43.9203C19.2437 43.3411 19.2119 42.8369 19.1481 42.4078C19.0844 41.9787 18.9568 41.6139 18.7656 41.3136C18.553 41.0132 18.2661 40.7987 17.9048 40.6699C17.5436 40.5198 17.0654 40.4447 16.4703 40.4447H15.0358ZM15.0358 31.2406V37.5483H16.5022C17.5861 37.5483 18.3086 37.2801 18.6699 36.7437C19.0525 36.1859 19.2437 35.3813 19.2437 34.3301C19.2437 33.3002 19.0312 32.5279 18.6062 32.0129C18.2024 31.498 17.4586 31.2406 16.3747 31.2406H15.0358Z" fill="#FFFFFF"></path>
<path d="M28.609 31.2406V38.385H30.458C31.0318 38.385 31.4887 38.3099 31.8288 38.1597C32.1688 37.9881 32.4345 37.7521 32.6257 37.4517C32.7958 37.1514 32.9126 36.7866 32.9764 36.3575C33.0402 35.907 33.072 35.3921 33.072 34.8128C33.072 34.2335 33.0402 33.7293 32.9764 33.3002C32.9126 32.8497 32.7851 32.4635 32.5939 32.1417C32.1901 31.5409 31.425 31.2406 30.2986 31.2406H28.609ZM25.3574 51.0648V28.1511H30.5855C34.4109 28.1511 36.3236 30.3931 36.3236 34.8772C36.3236 36.2288 36.1111 37.3766 35.6861 38.3206C35.2823 39.2647 34.5597 40.0263 33.5183 40.6056L37.025 51.0648H33.5821L30.5536 41.2814H28.609V51.0648H25.3574Z" fill="#FFFFFF"></path>
<path d="M45.4977 43.0514L43.9037 34.7484H43.84L42.2461 43.0514H45.4977ZM37.4643 51.0648L42.533 28.1511H45.2426L50.3113 51.0648H47.0597L46.1034 46.1409H41.6723L40.7159 51.0648H37.4643Z" fill="#FFFFFF"></path>
<path d="M51.785 51.0648V28.1511H54.909L59.8183 41.9572H59.8821V28.1511H63.1337V51.0648H60.0734L55.1003 37.2908H55.0366V51.0648H51.785Z" fill="#FFFFFF"></path>
<path d="M66.0772 51.0648V28.1511H70.8909C72.7611 28.1511 74.1744 28.666 75.1307 29.6958C76.1083 30.7257 76.5971 32.1846 76.5971 34.0726V44.7893C76.5971 46.9347 76.0764 48.5224 75.0351 49.5522C74.015 50.5606 72.5379 51.0648 70.604 51.0648H66.0772ZM69.3288 31.2406V47.9753H70.8271C71.741 47.9753 72.3892 47.75 72.7717 47.2995C73.1542 46.8275 73.3455 46.098 73.3455 45.1111V34.0726C73.3455 33.1715 73.1649 32.4742 72.8036 31.9808C72.4423 31.4873 71.7835 31.2406 70.8271 31.2406H69.3288Z" fill="#FFFFFF"></path>
</svg>