<svg width="150" height="24" viewBox="0 0 150 24" fill="none" xmlns="http://www.w3.org/2000/svg">
<g clip-path="url(#clip0_3029_703)">
<mask id="mask0_3029_703" style="mask-type:luminance" maskUnits="userSpaceOnUse" x="0" y="0" width="150" height="24">
<path d="M150 0H0V24H150V0Z" fill="white"/>
</mask>
<g mask="url(#mask0_3029_703)">
<path d="M78.3535 1.84647C78.3535 1.84647 76.9121 2.41789 75.2364 4.25543C73.554 6.09969 72.5833 8.16131 73.3062 8.70809C73.5833 8.91649 74.2229 8.95235 75.3851 7.91257C76.2927 7.10361 77.2161 6.04142 77.8423 4.5221C78.5923 2.70249 78.3535 1.86663 78.3535 1.84647ZM87.527 5.15403C85.6643 4.20389 84.304 3.04311 82.8873 2.3193C81.536 1.6291 80.6621 1.34002 79.5697 1.48568C79.3896 1.51033 79.1193 1.59773 79.1193 1.59773C79.1193 1.59773 79.6824 3.50921 77.4436 6.72266C75.1756 9.97644 73.1193 9.95851 72.5337 9.05991C71.9211 8.11649 72.7116 6.19156 74.0315 4.47952C75.4143 2.68904 77.8445 1.20333 77.8445 1.20333C77.8445 1.20333 77.0697 0.732741 75.1666 1.80613C73.313 2.84815 70.1125 5.33554 67.1531 9.5305C64.1959 13.7255 63.6013 16.0336 63.1756 17.8509C62.7477 19.6683 63.1373 21.6134 65.1621 21.6134C67.1891 21.6157 69.545 18.5411 70.2094 17.4722C71.4459 15.4823 72.2522 12.4302 70.5697 12.8493C69.7409 13.0554 69.0697 13.9697 68.6463 14.8481C68.2116 15.7512 68.036 16.614 68.036 16.614C68.036 16.614 67.3355 16.8627 66.3941 17.5641C65.4526 18.2633 64.8378 18.9333 64.8378 18.9333C64.8378 18.9333 64.8445 17.4812 66.0089 15.1305C67.1733 12.7798 69.3085 11.7064 70.5179 11.6056C71.608 11.5182 73.027 12.4392 71.8242 15.8386C70.6238 19.2381 67.0765 23.3613 63.349 23.4129C59.9098 23.4599 57.6598 19.0924 62.4459 11.4756C67.7409 3.04983 73.9571 0.466074 75.9751 0.179239C77.9932 -0.107595 78.6486 0.777559 78.6486 0.777559C78.6486 0.777559 80.34 0.00220847 82.4842 0.147867C84.9481 0.313693 86.8535 2.04815 89.367 3.26719C88.7139 3.8924 88.09 4.54226 87.527 5.15403ZM98.5945 2.3193C96.8873 3.40837 94.5247 4.39661 92.2544 4.17924C91.6801 4.77084 91.0652 5.45431 90.4481 6.20053C94.3851 6.97588 97.8333 4.54899 99.6666 2.48288C100.813 1.19437 101.378 0.0425446 101.378 0.0425446C101.378 0.0425446 100.284 1.23918 98.5945 2.3193ZM93.3535 13.3535C93.4031 13.2661 93.4256 13.1899 93.4256 13.1899C93.4256 13.1899 93.3806 12.8605 93.0652 12.847C92.6914 12.8291 92.1779 12.9008 90.8378 14.3776C89.5022 15.8476 88.6914 17.1249 87.9864 18.4022C87.2184 19.7983 86.9076 20.8381 87.349 21.107C87.4729 21.1832 87.6598 21.1921 87.813 21.154C88.1125 21.0823 88.4504 20.8045 88.9661 20.2106C89.2071 19.9327 89.4752 19.5383 89.795 19.1014C90.6824 17.9002 92.9121 14.1176 93.3535 13.3535ZM79.4211 14.9602C79.6441 14.3776 79.9301 13.2347 79.3378 12.7865C78.7004 12.3092 77.0788 13.4274 77.0697 14.5748C77.0585 15.749 78.2116 16.2801 78.4887 16.354C78.6463 16.3966 78.7004 16.3899 78.7769 16.2644C78.8242 16.1815 79.1959 15.5451 79.4211 14.9602ZM78.1936 17.0958C78.1508 17.0823 77.6261 16.8425 77.0788 16.3876C76.5337 15.935 76.2589 15.4173 76.2387 15.377C76.2161 15.3389 76.1936 15.368 76.1688 15.4016C76.1441 15.4353 76.0472 15.5204 75.1779 16.7865C74.3107 18.0526 72.9842 20.661 74.1869 21.107C74.9571 21.3916 76.2387 20.0493 76.9414 19.1596C77.59 18.3327 78.1981 17.2818 78.2319 17.2056C78.2679 17.1294 78.2364 17.1115 78.1936 17.0958ZM91.8333 20.1143C91.5067 20.6341 91.1351 21.6313 92.2139 21.0106C93.5269 20.2554 95.3986 17.4319 95.3986 17.4319H96.2454C96.2454 17.4319 95.1283 19.1865 93.6733 20.7888C92.3423 22.2565 90.7184 23.5899 89.5742 23.4577C88.2387 23.303 88.6576 21.5574 88.6576 21.5574C88.6576 21.5574 86.7387 23.5832 85.4211 23.4375C83.6351 23.2403 84.1801 21.0442 84.1801 21.0442C84.1801 21.0442 82.1598 23.5159 80.7837 23.4353C78.626 23.312 79.1688 20.6924 79.7679 18.8594C80.09 17.8756 80.3873 17.1025 80.3873 17.1025C80.3873 17.1025 80.1733 17.1585 79.7139 17.2257C79.4729 17.2594 79.036 17.284 79.036 17.284C79.036 17.284 78.1373 18.8616 77.4188 19.8095C76.7004 20.7596 73.6441 24.0246 71.8468 23.3703C70.1846 22.7652 70.7342 20.233 71.7026 18.2207C73.1148 15.2874 77.0878 11.0722 79.3783 11.6257C81.7544 12.1994 79.4324 16.5109 79.4324 16.5109C79.4324 16.5109 79.4324 16.5266 79.4571 16.5378C79.5044 16.5557 79.6283 16.5692 79.9143 16.5131C80.3715 16.4257 80.7837 16.2554 80.7837 16.2554C80.7837 16.2554 83.1711 11.2806 85.8085 8.02686C88.4459 4.77308 93.7071 -0.829164 95.7724 0.526578C96.277 0.860472 96.0472 2.00781 95.367 3.40165C95.0652 3.49577 94.7544 3.57868 94.4346 3.64367C94.8896 2.82126 95.1914 2.12882 95.2815 1.64479C95.5923 -0.0358868 91.6463 3.50697 88.8265 7.32098C86.0067 11.135 84.313 14.5882 84.313 14.5882C84.313 14.5882 84.8806 14.2678 85.7679 13.5574C86.6936 12.8157 87.9684 11.6526 89.349 10.2319C90.2792 9.27504 91.3738 8.07392 92.3963 6.73162C92.7026 6.71593 93.0022 6.6868 93.2927 6.63974C92.1508 8.16803 90.9504 9.56411 89.9301 10.5927C88.8085 11.7243 87.5878 12.9411 86.5292 13.8285C84.8445 15.2358 83.5472 16.0336 83.5472 16.0336C83.5472 16.0336 81.081 20.9815 82.4233 21.2997C83.2116 21.4879 84.7702 19.1014 84.7702 19.1014C84.7702 19.1014 86.8017 16.0157 88.027 14.6285C89.6981 12.7372 91.1373 11.6459 92.5742 11.6235C93.4121 11.6078 93.9053 12.4974 93.9053 12.4974L94.2995 11.8902L96.7252 11.8924C96.7252 11.8924 92.1959 19.5383 91.8333 20.1143ZM98.5945 2.3193C96.8873 3.40837 94.5247 4.39661 92.2544 4.17924C91.6801 4.77084 91.0652 5.45431 90.4481 6.20053C94.3851 6.97588 97.8333 4.54899 99.6666 2.48288C100.813 1.19437 101.378 0.0425446 101.378 0.0425446C101.378 0.0425446 100.284 1.23918 98.5945 2.3193ZM64.5382 6.07056L62.2319 6.06832L60.9278 8.16579L63.2342 8.16804L64.5382 6.07056ZM53.617 13.3266C54.599 11.9888 57.3062 7.29857 57.3062 7.29857C57.3062 7.29857 57.2612 6.96916 56.9459 6.95571C56.572 6.93778 55.9504 7.06327 54.7049 8.60949C53.4594 10.1535 52.4999 11.386 51.7972 12.6655C51.0269 14.0616 50.6914 15.0476 51.1328 15.3143C51.2567 15.3882 51.4436 15.3994 51.5968 15.3613C51.8851 15.2896 52.2612 15.0028 52.777 14.4112C53.0202 14.1355 53.295 13.7636 53.617 13.3266ZM41.2409 6.98484C40.6035 6.50529 38.9819 7.62574 38.9729 8.77084C38.9639 9.94507 40.4369 10.2812 40.6283 10.2902C40.6283 10.2902 40.795 10.335 40.8603 10.196C40.9008 10.1087 41.1013 9.74114 41.3265 9.15851C41.5495 8.57588 41.8333 7.43302 41.2409 6.98484ZM40.2792 11.0297C40.2364 11.014 39.626 10.8392 39.0292 10.4582C38.4324 10.0795 38.1576 9.51481 38.1373 9.47448C38.1148 9.43638 38.09 9.46551 38.0675 9.49913C38.0427 9.53274 37.9143 9.69409 37.0472 10.9602C36.1801 12.2241 34.8941 14.8168 36.099 15.2605C36.8693 15.5451 38.1643 14.1983 38.8648 13.3087C39.5134 12.4818 40.2882 11.2112 40.322 11.1372C40.3513 11.061 40.3197 11.0431 40.2792 11.0297ZM59.1238 11.8095H59.9684C59.9684 11.8095 55.7342 17.898 53.34 17.6201C52.0044 17.4655 52.4008 15.8252 52.4008 15.8252C52.4008 15.8252 50.5202 18.0101 48.804 17.5731C47.2409 17.1742 48.2499 14.5904 48.2499 14.5904C48.072 14.6622 44.6914 18.4538 42.3152 17.5439C39.8288 16.5893 41.1193 13.414 41.5923 12.4594C41.9932 11.6549 42.4369 10.8706 42.4369 10.8706C42.4369 10.8706 42.0562 10.9781 41.8175 11.0319C41.581 11.0857 41.2206 11.1551 41.2206 11.1551C41.2206 11.1551 40.045 13.0577 39.3265 14.0056C38.608 14.9557 35.5517 18.2162 33.7522 17.5664C31.9526 16.9143 32.3986 14.4112 33.4098 12.4213C35.0495 9.19437 38.9414 5.22798 41.2837 5.82406C43.6508 6.42462 41.6914 10.2453 41.6914 10.2453C41.6914 10.2453 42.1621 10.3059 43.2905 9.53946C44.9188 8.43694 47.0607 5.47 49.3828 5.81733C50.4729 5.98092 51.4887 7.09465 50.099 9.20781C49.6531 9.8868 48.9076 10.4941 48.3355 9.89353C47.9797 9.52378 48.2905 8.8403 48.6643 8.3742C49.1914 7.71313 49.9188 7.80501 49.9188 7.80501C49.9188 7.80501 50.3017 6.92882 49.3265 6.94675C48.536 6.96243 46.536 8.79325 45.4076 10.6442C44.3715 12.3428 42.804 15.2381 44.3783 15.87C45.822 16.4504 48.5697 13.2056 49.8423 11.5047C51.1148 9.80613 54.0112 5.94955 56.4436 5.79493C57.2815 5.74114 57.7792 6.50081 57.7792 6.50081L58.0607 6.05711L60.4887 6.05935C60.4887 6.05935 55.9076 13.665 55.5495 14.2409C55.2679 14.6913 54.8941 15.7042 55.9301 15.1372C56.9706 14.568 59.1238 11.8095 59.1238 11.8095ZM57.7995 24C55.9616 22.7115 53.7206 22.1445 51.6869 22.2252C49.6283 22.3059 48.7049 23.8341 48.7049 23.8341C47.7769 22.2229 45.9436 21.2347 43.108 21.2571C38.5269 21.3087 33.9797 23.4106 30.3828 23.4084C26.9278 23.4061 24.4121 21.2481 24.4954 17.414C24.6441 10.6913 30.3558 4.63638 34.6238 1.91145C37.0765 0.345066 39.1306 -0.1188 40.4751 0.0313401C41.4549 0.138903 42.6328 1.26607 41.8896 2.92658C40.7972 5.35795 39.2882 5.15403 39.3445 3.99324C39.376 3.23806 39.8806 2.76299 40.2612 2.50305C40.5022 2.33722 40.9279 2.29016 41.1508 2.28568C41.367 2.10417 41.5315 0.775318 39.7747 1.21229C38.0157 1.64927 35.9008 3.36579 33.8828 5.5798C31.8648 7.79156 28.7251 11.9888 27.9481 16.3899C27.5855 18.4313 27.8265 22.1535 32.6869 22.1131C36.8062 22.0795 42.8918 19.3815 48.4797 19.433C50.6486 19.4532 52.536 20.0358 54.0067 20.9389C55.4526 21.8241 57.1846 23.1171 57.7995 24Z" fill="#DDEAFF"/>
</g>
<path d="M13.5991 15.283L18.4752 15.2852L18.3153 14.1827L14.8716 14.1804V12.8449H17.1914V11.7356L14.8716 11.7334V10.5905L18.2342 10.5928L18.3964 9.49024L13.6014 9.488L13.5991 15.283ZM6.39414 15.2785H7.66216L7.66441 12.7127L10.6396 12.7149L10.6374 15.2807H11.9077L11.9122 9.488H10.6419V11.5877L7.66667 11.5855V9.48576H6.39865L6.39414 15.2785ZM0 10.6174L1.94144 10.6197L1.93919 15.2762H3.20946L3.21171 10.6174H5.15315V9.48352H0V10.6174Z" fill="#DDEAFF"/>
<mask id="mask1_3029_703" style="mask-type:luminance" maskUnits="userSpaceOnUse" x="0" y="0" width="150" height="24">
<path d="M150 0H0V24H150V0Z" fill="white"/>
</mask>
<g mask="url(#mask1_3029_703)">
<path d="M150 9.50143H148.601L147.079 12.2107L145.536 9.49919H144.106L146.432 13.3715L146.43 15.2941H147.7V13.3468L150 9.50143ZM141.865 9.49695L141.863 13.423L139.076 9.49471H137.761L137.759 15.2874H138.995L138.998 11.2964L141.824 15.2874H143.101L143.104 9.49471L141.865 9.49695ZM132.687 12.9031L133.554 10.6107L134.419 12.9054L132.687 12.9031ZM135.313 15.2852H136.649L134.34 9.49247H132.779L130.462 15.2829H131.788L132.272 13.9967L134.829 13.9989L135.313 15.2852ZM128.369 12.0471H126.68V10.6062H128.369C128.622 10.6062 128.82 10.6689 128.959 10.7922C129.099 10.9154 129.169 11.0925 129.169 11.3233C129.169 11.5541 129.099 11.7334 128.957 11.8566C128.82 11.9843 128.622 12.0471 128.369 12.0471ZM128.403 9.49023L125.41 9.48799L125.408 15.2807H126.678L126.68 13.1653H128.403C128.845 13.1653 129.221 13.0846 129.527 12.9255C129.833 12.7642 130.065 12.5446 130.221 12.2667C130.378 11.9888 130.455 11.6751 130.455 11.3255C130.455 10.9759 130.378 10.6622 130.221 10.3821C130.065 10.1042 129.833 9.88463 129.527 9.72776C129.221 9.56866 128.845 9.49023 128.403 9.49023ZM123.721 9.48575H122.016L120.306 13.5082L118.563 9.4835H116.858L116.856 15.2762H118.086L118.088 11.1328L119.856 15.1955H120.705L122.493 11.0275L122.491 15.2762H123.721V9.48575ZM112.365 14.2342C112.02 14.2342 111.712 14.1558 111.439 13.9967C111.167 13.8376 110.953 13.618 110.799 13.3356C110.646 13.0533 110.57 12.735 110.57 12.3743C110.57 12.0135 110.646 11.693 110.802 11.4129C110.955 11.1306 111.169 10.911 111.441 10.7541C111.712 10.5972 112.02 10.5166 112.367 10.5166C112.714 10.5166 113.02 10.5972 113.293 10.7541C113.565 10.9132 113.779 11.1306 113.93 11.4152C114.083 11.6953 114.16 12.018 114.16 12.3765C114.16 12.735 114.083 13.0555 113.93 13.3378C113.777 13.6202 113.563 13.8398 113.29 13.9967C113.02 14.158 112.712 14.2342 112.365 14.2342ZM112.365 15.3771C112.964 15.3771 113.5 15.2493 113.971 14.9961C114.444 14.7406 114.811 14.3866 115.079 13.9294C115.345 13.4745 115.48 12.9569 115.48 12.3787C115.48 11.7984 115.347 11.2829 115.081 10.8258C114.815 10.3709 114.446 10.0146 113.973 9.75913C113.502 9.50367 112.966 9.37594 112.367 9.37594C111.768 9.37594 111.234 9.50367 110.761 9.75689C110.288 10.0124 109.919 10.3687 109.653 10.8236C109.385 11.2807 109.252 11.7961 109.252 12.3765C109.252 12.9547 109.385 13.4723 109.653 13.9294C109.919 14.3866 110.288 14.7406 110.759 14.9961C111.234 15.2493 111.766 15.3771 112.365 15.3771ZM106.252 15.3748C106.727 15.3748 107.169 15.2986 107.583 15.1462C107.995 14.9939 108.333 14.7653 108.599 14.4583L107.806 13.5978C107.385 14.0213 106.878 14.232 106.279 14.232C105.901 14.232 105.561 14.1513 105.257 13.9855C104.95 13.8219 104.716 13.6 104.545 13.3177C104.376 13.0353 104.29 12.7194 104.29 12.372C104.29 12.0224 104.376 11.7087 104.549 11.4264C104.721 11.144 104.957 10.9222 105.257 10.7586C105.556 10.595 105.892 10.5121 106.263 10.5121C106.549 10.5121 106.815 10.5659 107.061 10.6689C107.306 10.7743 107.543 10.9401 107.768 11.1664L108.561 10.2902C108.302 9.98995 107.971 9.76138 107.563 9.60675C107.155 9.44989 106.712 9.37146 106.232 9.37146C105.613 9.37146 105.054 9.50143 104.558 9.76138C104.063 10.0213 103.673 10.3799 103.394 10.8392C103.113 11.2986 102.973 11.8096 102.973 12.372C102.973 12.9345 103.113 13.4454 103.392 13.9048C103.671 14.3619 104.061 14.7227 104.558 14.9827C105.056 15.2448 105.622 15.3748 106.252 15.3748Z" fill="#DDEAFF"/>
</g>
</g>
<defs>
<clipPath id="clip0_3029_703">
<rect width="150" height="24" fill="white"/>
</clipPath>
</defs>
</svg>
